<?xml version="1.0" standalone="no"?>
<!DOCTYPE svg PUBLIC "-//W3C//DTD SVG 20010904//EN"
 "http://www.w3.org/TR/2001/REC-SVG-20010904/DTD/svg10.dtd">
<svg version="1.0" xmlns="http://www.w3.org/2000/svg"
 width="1920.000000pt" height="1080.000000pt" viewBox="0 0 1920.000000 1080.000000"
 preserveAspectRatio="xMidYMid meet">
<metadata>
Created by potrace 1.15, written by Peter Selinger 2001-2017
</metadata>
<g transform="translate(0.000000,1080.000000) scale(0.100000,-0.100000)"
fill="#000000" stroke="none">
<path d="M7932 10770 c-24 -17 -69 -43 -100 -59 -93 -48 -142 -115 -142 -199
0 -48 -26 -147 -45 -175 -8 -12 -15 -27 -15 -33 0 -24 -121 -198 -154 -223
-10 -8 -26 -23 -35 -34 -9 -10 -29 -25 -44 -31 -32 -14 -217 -183 -217 -198 0
-5 -9 -21 -20 -35 -11 -14 -23 -44 -27 -66 -5 -33 -13 -44 -51 -68 -25 -16
-60 -33 -79 -40 -18 -6 -63 -26 -99 -45 -74 -39 -81 -40 -104 -19 -24 22 -209
85 -249 85 -121 1 -240 -91 -265 -205 -16 -71 -82 -116 -324 -224 -63 -27
-149 -73 -192 -101 -43 -27 -87 -50 -97 -50 -10 1 -34 9 -53 20 -19 10 -55 29
-78 41 -24 12 -49 31 -55 42 -11 18 -123 98 -176 127 -14 7 -51 19 -84 27 -53
12 -66 12 -106 -2 -25 -8 -86 -17 -136 -19 -49 -3 -117 -10 -150 -17 -61 -11
-87 -15 -115 -18 -8 0 -27 -11 -40 -23 -37 -33 -88 -68 -98 -68 -19 0 -143
-182 -157 -230 -4 -14 -15 -36 -25 -50 -26 -37 -61 -139 -66 -190 -3 -25 -12
-83 -21 -130 -21 -116 -25 -243 -8 -312 l13 -58 -24 0 c-37 0 -94 -32 -100
-56 -3 -13 -3 -32 1 -45 5 -15 4 -19 -5 -14 -15 9 -87 -67 -92 -97 -2 -13 -1
-42 3 -65 5 -37 3 -42 -17 -47 -47 -12 -93 -121 -73 -172 4 -13 5 -24 1 -24
-10 0 -42 -65 -42 -86 0 -8 10 -45 22 -82 21 -65 44 -95 102 -135 15 -11 48
-50 72 -89 46 -71 50 -95 24 -148 -4 -8 -12 -26 -18 -40 -67 -170 -131 -298
-165 -334 -22 -23 -67 -95 -101 -161 -74 -144 -92 -221 -82 -347 6 -77 5 -86
-14 -103 -11 -10 -20 -21 -20 -25 0 -12 -51 -63 -95 -95 -22 -16 -61 -50 -86
-76 -40 -41 -47 -54 -53 -102 -6 -58 -27 -131 -36 -126 -3 1 -24 -8 -47 -20
-51 -26 -77 -70 -73 -126 9 -151 3 -167 -60 -155 -22 4 -43 3 -46 -1 -3 -5
-13 -5 -22 0 -17 8 -74 16 -199 27 -53 5 -68 3 -98 -16 -40 -25 -44 -44 -15
-75 30 -32 130 -236 130 -266 0 -33 -33 -44 -185 -59 -60 -7 -136 -21 -167
-32 -46 -16 -63 -18 -85 -10 -89 34 -201 19 -271 -35 -20 -15 -50 -33 -67 -39
-64 -23 -161 -204 -170 -318 -5 -64 -25 -140 -49 -186 -9 -17 -23 -44 -32 -62
-19 -36 -21 -148 -3 -194 19 -50 11 -230 -12 -259 -4 -6 -11 -26 -14 -45 -3
-19 -10 -60 -16 -90 -14 -70 -13 -104 8 -213 13 -70 14 -97 6 -130 -8 -30 -8
-102 0 -265 7 -148 8 -226 1 -230 -9 -6 -40 -123 -43 -162 -1 -8 -4 -48 -7
-89 -6 -73 8 -200 28 -250 60 -147 104 -211 245 -354 131 -133 227 -213 308
-255 47 -25 94 -75 163 -171 42 -59 109 -116 247 -208 33 -23 71 -53 85 -68
14 -15 46 -38 72 -51 56 -28 105 -61 138 -91 13 -13 39 -26 58 -29 20 -4 50
-17 69 -29 39 -27 126 -40 204 -30 l54 6 33 -60 c39 -72 125 -178 155 -192 12
-5 33 -16 47 -24 13 -8 49 -17 80 -20 139 -16 159 -23 226 -87 59 -57 102 -83
199 -121 49 -19 176 -47 229 -50 49 -3 57 -21 16 -35 -17 -6 -33 -11 -36 -11
-3 0 -20 -10 -37 -23 -18 -13 -48 -31 -68 -41 -19 -10 -51 -32 -70 -48 -18
-17 -46 -37 -61 -45 -15 -7 -48 -29 -73 -46 -25 -18 -60 -43 -78 -55 -18 -12
-41 -31 -52 -41 -11 -11 -33 -28 -50 -38 -16 -10 -57 -39 -91 -65 -74 -57
-115 -79 -149 -79 -14 0 -43 -9 -65 -20 -22 -11 -50 -20 -62 -20 -13 0 -30 -5
-38 -10 -10 -6 288 -10 850 -10 857 0 866 0 883 20 35 41 51 102 51 195 0 101
-9 153 -34 207 -17 36 -17 38 1 43 10 4 29 3 41 -1 45 -14 192 -6 241 13 48
19 106 66 134 110 10 15 24 23 37 21 58 -7 153 76 215 185 13 23 27 44 31 47
7 5 46 111 60 165 30 111 43 152 54 170 12 19 66 175 70 202 3 19 9 22 70 38
32 8 78 29 102 46 l44 30 0 -54 c0 -48 3 -56 34 -84 23 -20 50 -32 78 -36 24
-3 52 -8 63 -10 13 -3 28 5 41 21 l22 26 68 -45 c38 -25 85 -55 105 -67 50
-30 119 -29 188 3 29 14 67 26 84 28 47 3 61 -44 61 -213 0 -136 -16 -222 -51
-275 -7 -11 -13 -28 -13 -38 0 -10 -6 -31 -14 -45 -27 -49 -54 -117 -65 -162
-7 -25 -16 -60 -22 -77 -5 -18 -13 -48 -18 -67 -13 -53 -57 -139 -83 -162 -12
-12 -42 -31 -65 -43 -53 -26 -73 -55 -75 -109 -2 -66 19 -82 109 -82 67 0 74
2 82 22 l8 23 7 -23 c7 -22 9 -22 199 -22 106 0 236 6 290 12 114 13 132 27
143 109 4 27 10 49 14 49 5 0 24 22 44 49 43 58 72 143 81 237 8 74 63 234 92
266 53 59 130 220 138 290 6 52 3 62 -31 129 -21 40 -64 99 -96 133 -68 70
-127 181 -110 206 6 8 23 38 38 67 23 45 26 60 21 108 -3 31 -16 73 -28 93
-28 48 -56 140 -54 177 2 30 14 84 42 184 24 82 2 205 -40 233 -6 3 -13 39
-16 80 -5 57 -15 88 -43 143 -20 39 -48 102 -62 140 -24 65 -25 82 -24 220 1
90 -2 160 -9 175 -6 14 -34 56 -62 93 -32 42 -50 75 -46 85 2 10 5 20 6 24 0
4 4 21 9 37 5 20 4 38 -5 55 -12 23 -12 31 3 59 22 42 29 46 67 40 64 -10 140
49 218 172 l32 49 65 3 c97 5 145 27 223 102 38 36 75 78 83 93 7 14 19 32 26
40 57 60 88 100 83 108 -5 8 42 47 141 113 22 15 50 41 63 57 12 17 28 30 36
30 8 0 15 5 15 10 0 11 33 60 63 94 9 11 17 26 17 33 0 19 52 90 75 103 20 11
88 94 112 134 7 12 12 33 13 48 0 20 8 32 30 43 16 8 43 35 60 59 26 39 30 53
30 110 l0 66 58 64 c76 84 125 183 123 250 -1 28 -8 57 -16 66 -8 9 -15 23
-15 31 0 29 24 39 94 39 67 0 72 2 107 36 l38 37 -25 32 c-13 17 -24 36 -24
40 0 5 -6 16 -13 24 -8 9 -24 44 -37 78 -14 40 -39 81 -69 113 -75 83 -107
132 -125 195 -10 33 -26 85 -36 115 -10 30 -22 75 -26 100 -7 46 -40 88 -108
135 -28 20 -29 23 -18 54 16 45 15 77 -4 169 -12 60 -22 83 -46 105 -22 21
-33 26 -41 18 -18 -18 -30 -12 -22 12 3 12 13 47 20 77 8 30 19 73 25 95 25
84 5 181 -54 264 -17 24 -44 62 -60 85 -16 23 -36 61 -44 86 -8 25 -18 50 -22
55 -4 6 -11 30 -14 55 -11 68 -35 170 -54 220 -9 25 -17 48 -17 52 0 10 -85
99 -140 147 -27 23 -67 63 -88 89 l-38 46 4 89 c4 86 3 92 -30 158 -19 37 -46
78 -62 91 -15 13 -26 29 -23 36 2 7 0 12 -5 12 -5 0 -23 12 -41 28 -41 34 -54
79 -92 332 -50 324 -57 382 -65 605 -2 50 -8 135 -14 190 -11 120 -6 133 102
268 86 109 99 142 87 228 -5 35 -10 67 -10 71 0 3 -10 19 -23 35 -27 35 -28
52 0 82 26 28 57 124 48 151 -9 29 -64 90 -81 90 -8 0 -14 9 -14 20 0 12 7 20
17 20 9 0 49 33 88 73 54 55 76 86 88 124 19 59 22 109 7 118 -8 5 -7 11 1 21
10 12 -16 14 -177 14 l-189 -1 -43 -29z m-1238 -1253 c38 -14 87 -39 109 -54
22 -15 47 -33 57 -38 9 -6 63 -57 119 -115 l102 -105 -5 -51 c-2 -28 -9 -60
-15 -70 -6 -11 -15 -31 -20 -45 -11 -30 -69 -54 -216 -90 -110 -27 -190 -64
-316 -145 -109 -70 -201 -163 -346 -350 -37 -48 -83 -135 -83 -158 0 -31 26
-15 55 34 16 28 33 50 37 50 4 0 8 5 8 11 0 6 18 27 40 48 22 20 40 43 40 49
0 7 7 12 16 12 8 0 12 5 9 10 -9 14 8 12 25 -2 12 -11 12 -10 1 4 -15 20 -7
40 13 32 9 -3 17 3 21 15 6 21 25 29 25 11 0 -5 -4 -10 -10 -10 -5 0 -10 -10
-10 -22 0 -21 0 -21 15 -2 11 14 15 16 15 4 0 -12 4 -11 15 4 8 11 18 16 22
13 3 -4 -3 -21 -16 -37 -23 -32 -20 -40 6 -15 9 9 23 13 35 9 14 -4 21 0 24
13 3 11 19 24 36 31 16 6 27 16 23 21 -3 7 0 8 9 5 11 -4 16 0 16 11 0 9 8 19
18 22 20 5 58 53 42 53 -5 0 -10 -5 -10 -11 0 -5 -5 -7 -10 -4 -18 11 2 27 28
22 44 -8 105 84 63 97 -9 3 -5 4 9 2 19 -2 30 6 47 31 l22 33 -23 0 c-23 0
-51 -22 -41 -32 9 -9 -32 -16 -45 -8 -9 5 -9 9 -1 14 6 4 11 1 11 -6 0 -7 6
-2 13 11 6 14 27 31 45 38 19 8 31 9 27 3 -3 -5 -2 -10 3 -10 6 0 12 6 15 13
6 15 86 42 95 32 13 -12 4 -151 -11 -186 -14 -32 -103 -119 -122 -119 -4 0
-15 -10 -25 -23 -10 -13 -42 -36 -72 -52 -29 -16 -62 -37 -73 -48 -11 -10 -32
-25 -46 -32 -66 -35 -178 -116 -213 -155 -47 -52 -33 -65 26 -23 76 53 123 83
130 83 10 0 -44 -130 -63 -154 -70 -86 -95 -121 -126 -181 -46 -86 -93 -203
-93 -231 0 -12 -7 -28 -17 -35 -22 -19 -53 -88 -53 -122 0 -28 -72 -137 -89
-137 -11 0 -55 -89 -52 -104 7 -37 7 -116 -1 -116 -5 0 -6 -4 -3 -10 3 -5 1
-10 -4 -10 -6 0 -11 5 -11 10 0 19 -2 25 -11 37 -7 7 -5 13 3 16 7 2 10 8 6
12 -4 4 -15 2 -24 -6 -13 -11 -13 -15 -2 -23 18 -15 20 -65 3 -82 -12 -13 -16
-11 -30 13 l-16 28 6 -28 c5 -26 4 -27 -16 -17 -23 13 -42 4 -20 -9 10 -7 9
-10 -3 -14 -9 -4 -16 -2 -16 3 0 6 -11 10 -25 10 -14 0 -25 5 -25 10 0 6 11 8
25 4 20 -5 24 -3 19 9 -3 8 -16 14 -30 13 -18 -1 -24 -7 -24 -23 0 -23 -15
-32 -22 -13 -2 6 -8 6 -18 0 -13 -8 -12 -10 3 -10 19 0 23 -15 7 -25 -5 -3
-10 -14 -10 -25 0 -14 5 -17 22 -12 17 4 20 2 15 -11 -4 -10 -2 -17 3 -17 6 0
10 5 10 11 0 6 7 4 15 -5 18 -18 20 -30 3 -20 -10 6 -10 5 -1 -8 11 -12 10
-19 -6 -37 -18 -21 -19 -21 -24 -1 -5 21 -9 23 -74 40 -35 9 -43 16 -53 45
-19 57 -47 85 -86 85 -20 0 -43 -4 -53 -10 -30 -16 -161 -20 -161 -5 0 7 -10
15 -22 19 -20 5 -21 8 -8 17 12 9 12 10 -4 5 -13 -4 -29 4 -52 26 -41 40 -43
55 -6 54 28 -1 52 14 52 33 0 6 5 11 10 11 18 0 11 30 -7 31 -15 0 -15 2 2 9
30 13 34 12 28 -10 -4 -15 0 -20 15 -20 13 0 22 9 26 26 6 21 9 24 21 14 11
-9 15 -9 15 -1 0 6 9 11 21 11 11 0 17 5 14 10 -4 7 -12 7 -25 0 -22 -12 -46
-4 -54 16 -6 17 5 19 21 3 8 -8 16 -8 30 0 16 9 15 10 -10 11 -16 0 -26 4 -22
10 6 10 -15 5 -52 -13 -13 -6 -26 -7 -30 -3 -4 4 3 9 15 13 12 3 19 9 16 14
-4 8 4 10 31 9 3 0 18 6 34 14 16 9 31 12 35 9 3 -4 6 -1 6 5 0 7 6 12 14 12
8 0 17 4 20 8 2 4 -12 8 -32 8 -84 2 -163 14 -184 28 -12 9 -29 16 -37 16 -7
0 -20 8 -28 18 -13 16 -13 16 -5 -3 15 -33 3 -49 -18 -25 -15 17 -19 18 -24 5
-9 -24 -35 -19 -29 6 4 16 8 17 14 7 7 -10 9 -9 9 5 0 10 -8 17 -20 17 -15 0
-20 7 -20 25 0 14 5 25 10 25 6 0 10 -4 10 -10 0 -5 5 -10 10 -10 6 0 9 5 8
12 -2 7 8 13 24 13 14 0 30 3 34 8 4 4 0 7 -10 7 -10 0 -14 5 -10 11 3 6 17 9
30 6 14 -2 27 0 30 4 3 5 -2 9 -10 9 -8 0 -18 5 -21 11 -4 6 0 9 10 7 10 -2
20 3 22 10 4 9 -2 11 -21 6 -17 -4 -26 -2 -26 6 0 6 5 8 10 5 6 -3 10 -1 10 4
0 6 -9 11 -21 11 -13 0 -18 4 -13 12 5 8 -5 9 -37 5 -43 -5 -43 -5 -17 9 15 8
39 15 53 16 14 1 25 6 25 11 0 5 18 7 39 3 34 -5 39 -3 37 12 -2 11 -15 19
-42 23 -44 8 -155 -10 -166 -25 -7 -10 -12 9 -11 42 1 17 -3 15 -31 -13 -20
-19 -21 -25 -9 -25 9 0 13 -3 9 -7 -4 -5 -20 -8 -34 -8 -20 0 -26 -4 -24 -17
3 -21 -8 -23 -28 -5 -12 10 -12 9 -1 -5 13 -17 12 -19 -6 -17 -5 0 -10 -10
-13 -22 -7 -30 -30 -36 -37 -11 -3 11 -11 23 -19 26 -8 3 -13 16 -12 30 1 13
6 22 10 20 4 -3 17 0 28 6 14 8 20 8 20 0 0 -6 5 -8 11 -5 7 5 4 14 -8 28 -14
17 -14 19 -1 9 12 -9 18 -10 23 -2 4 6 13 9 21 6 8 -3 14 0 14 6 0 7 5 6 15
-2 18 -15 19 -7 4 21 -6 11 -15 17 -22 12 -7 -4 -7 0 2 10 16 21 35 22 28 3
-8 -19 17 -53 27 -37 4 7 5 19 2 28 -5 12 -1 14 18 9 16 -4 26 -1 30 9 3 8 1
15 -5 15 -6 0 -8 4 -5 9 4 5 0 12 -6 14 -7 3 6 3 30 1 26 -3 42 -1 42 6 0 6
-11 8 -24 6 -16 -3 -27 1 -30 10 -3 8 -2 13 2 11 17 -10 46 11 49 36 2 15 0
27 -5 27 -5 0 -9 10 -8 23 1 18 -4 22 -31 22 -18 0 -32 -4 -30 -10 1 -5 9 -8
16 -7 12 3 13 1 2 -12 -10 -11 -18 -13 -31 -6 -13 7 -25 4 -44 -11 -14 -11
-26 -16 -26 -10 0 6 18 22 40 36 24 15 38 30 34 37 -4 6 -3 8 4 4 6 -3 27 3
46 13 19 11 50 24 67 29 48 12 49 32 2 32 -67 -1 -246 -51 -268 -76 -5 -6 -18
-14 -29 -18 -14 -5 -17 -2 -12 9 10 26 -3 16 -19 -15 -9 -17 -20 -28 -25 -25
-5 3 -11 -4 -15 -15 -5 -15 -12 -19 -26 -15 -16 5 -20 3 -17 -12 2 -13 -2 -17
-16 -15 -11 2 -15 -1 -11 -7 8 -13 -5 -14 -24 -2 -8 5 -12 18 -8 30 3 12 1 21
-4 21 -5 0 -9 -5 -9 -11 0 -8 -4 -8 -15 1 -8 6 -18 9 -24 6 -14 -9 -20 16 -8
39 11 21 51 63 107 109 19 15 89 55 156 87 119 58 123 59 230 65 60 3 116 6
124 6 18 0 91 23 140 45 19 8 50 21 68 29 42 18 72 18 72 -1 0 -8 4 -15 9 -15
5 0 7 10 4 21 -5 19 -4 20 15 10 31 -16 66 1 45 23 -9 9 -13 36 -5 37 34 4 50
7 65 14 12 5 17 3 17 -8 0 -9 -5 -19 -10 -22 -6 -4 -8 -11 -4 -16 3 -6 -2 -17
-12 -24 -11 -8 -14 -14 -9 -15 17 0 30 13 43 44 10 22 10 32 1 42 -7 8 -9 17
-6 20 8 8 47 -19 47 -33 0 -7 7 -13 16 -13 18 0 14 -22 -6 -28 -7 -3 -10 0 -6
6 4 6 -1 10 -12 9 -10 0 -18 -9 -18 -18 0 -10 6 -15 13 -12 7 3 20 0 28 -7 12
-10 15 -9 15 4 0 9 4 16 9 16 5 0 12 15 15 33 6 30 8 31 21 14 12 -17 13 -16
11 12 -2 31 -16 56 -16 29 0 -10 -10 -15 -30 -15 -16 0 -30 4 -30 9 0 4 5 7
12 5 6 -1 14 6 16 16 2 12 -3 17 -20 17 -20 0 -23 5 -25 40 0 22 3 40 8 40 4
0 6 -8 3 -17 -5 -17 -5 -17 9 0 15 18 33 24 23 8 -4 -5 0 -11 6 -14 10 -3 10
-7 -1 -21 -8 -9 -11 -19 -7 -23 3 -3 6 -1 6 5 0 7 10 8 28 2 27 -7 29 -6 24
19 -4 25 -4 25 12 6 15 -20 15 -19 16 8 0 17 5 27 15 27 8 0 15 5 15 11 0 6 7
17 15 25 8 8 12 21 9 29 -4 8 -1 15 5 15 6 0 11 7 11 15 0 8 7 15 15 15 8 0
23 21 34 46 18 40 19 49 7 66 -13 19 -14 19 -38 -4 -33 -31 -69 -96 -57 -102
5 -2 4 -3 -3 -2 -7 1 -15 11 -17 22 -2 10 -8 23 -15 27 -7 6 -4 7 7 3 24 -8
44 4 26 14 -10 7 -10 12 2 26 12 16 12 17 -1 9 -12 -6 -13 -5 -3 5 10 11 15
11 28 0 13 -11 15 -10 10 1 -3 8 4 28 15 44 11 17 20 24 20 16 0 -10 3 -11 14
-2 11 9 15 8 20 -4 3 -9 2 -13 -4 -10 -12 7 -12 3 -4 -19 3 -9 13 -16 21 -16
8 0 11 -5 7 -12 -4 -7 -3 -8 4 -4 7 4 12 12 12 17 0 12 25 39 35 39 4 0 4 -7
1 -16 -3 -8 -2 -12 4 -9 6 3 10 1 10 -4 0 -6 -5 -11 -12 -11 -19 0 -58 -42
-58 -62 0 -10 -4 -18 -9 -18 -5 0 -11 -8 -15 -17 -3 -10 -14 -31 -24 -48 -20
-31 -19 -55 2 -55 8 0 12 12 11 30 -1 16 2 27 7 24 5 -4 7 -12 4 -20 -3 -8 -1
-14 3 -14 5 0 7 -9 4 -21 -3 -12 -11 -18 -19 -15 -8 3 -14 -1 -14 -8 0 -21 25
-26 54 -13 26 12 37 33 12 24 -17 -7 -19 44 -2 56 8 5 7 11 -4 20 -16 12 -16
47 1 47 5 0 9 10 10 23 0 12 3 16 6 9 3 -8 0 -25 -8 -38 -7 -13 -9 -27 -6 -31
4 -3 7 -1 7 5 0 7 5 12 11 12 5 0 7 -4 4 -10 -11 -18 10 -10 28 10 20 24 30
25 46 6 10 -11 7 -17 -11 -30 -12 -9 -28 -16 -34 -16 -7 0 -11 -11 -9 -25 3
-29 1 -30 -20 -9 -9 9 -19 14 -22 10 -4 -3 1 -12 11 -19 24 -17 18 -62 -7 -62
-24 0 -63 -73 -43 -81 26 -10 67 17 94 62 15 26 73 109 130 185 80 108 125
158 205 225 105 89 159 150 216 243 48 79 46 101 -9 129 -46 23 -106 30 -95
12 4 -6 24 -18 45 -26 21 -9 41 -21 43 -29 10 -25 -152 -239 -169 -222 -8 8
37 67 48 61 4 -3 8 0 8 5 0 16 -26 13 -40 -4 -7 -8 -16 -15 -21 -15 -5 0 -9 7
-9 15 0 8 6 15 13 15 7 0 22 7 33 15 16 13 17 16 4 25 -12 9 -12 10 5 8 13 -2
19 -10 17 -21 -3 -17 -2 -17 16 0 21 20 19 33 -4 33 -8 0 -13 4 -9 10 3 5 12
7 20 3 9 -3 15 1 15 11 0 9 -7 16 -15 16 -18 0 -20 17 -2 23 6 2 8 8 4 13 -4
5 -12 2 -16 -5 -5 -8 -14 -10 -21 -6 -9 5 -11 4 -6 -3 4 -8 0 -12 -11 -12 -15
-1 -13 -4 7 -16 24 -15 21 -15 -27 0 -16 5 -26 0 -43 -24 -12 -17 -26 -28 -31
-25 -5 4 -6 -1 -3 -9 4 -11 0 -16 -10 -16 -9 0 -16 -7 -16 -16 0 -9 5 -13 13
-9 6 4 3 -1 -7 -9 -11 -9 -28 -14 -38 -10 -10 3 -18 2 -18 -3 0 -4 -9 -14 -19
-20 -18 -11 -19 -10 -15 10 3 12 9 39 14 60 4 21 14 45 22 55 9 9 34 53 57 97
32 63 52 88 93 118 51 37 55 38 123 35 44 -3 96 -14 139 -31z m763 -269 c21
-22 35 -51 42 -86 14 -67 14 -189 1 -197 -11 -7 -50 20 -107 73 -62 58 -139
93 -205 93 -35 0 -17 26 45 61 34 19 84 44 110 53 26 10 50 22 53 26 10 17 30
9 61 -23z m-1284 -44 c-4 -10 -1 -15 8 -14 30 5 50 0 44 -11 -4 -6 -13 -8 -21
-5 -11 4 -11 2 -2 -14 7 -11 17 -19 23 -17 6 1 11 -2 12 -8 1 -5 -7 -9 -17 -7
-15 2 -20 -3 -20 -17 0 -12 -4 -21 -8 -21 -5 0 -8 14 -7 30 1 17 -3 34 -8 37
-6 4 -7 1 -2 -7 6 -10 4 -12 -8 -7 -10 3 -17 2 -17 -3 0 -6 5 -10 10 -10 18 0
5 -25 -24 -47 -17 -13 -26 -23 -22 -23 5 0 3 -6 -3 -14 -8 -10 -9 -16 -1 -21
5 -3 10 -2 10 3 0 6 8 13 17 16 15 6 15 4 -2 -14 -10 -11 -15 -23 -12 -27 9
-8 -24 -32 -43 -32 -10 0 -8 6 9 20 13 11 20 23 16 27 -4 4 -10 1 -12 -6 -3
-6 -9 -9 -15 -6 -5 4 -3 13 6 22 13 15 13 20 0 36 -14 19 -14 19 -14 -5 1 -33
-5 -62 -14 -77 -4 -6 -2 -12 3 -12 6 0 11 -6 11 -13 0 -9 -11 -12 -36 -9 -28
3 -35 1 -29 -8 5 -9 4 -11 -4 -6 -6 4 -9 11 -6 16 3 4 -2 11 -11 14 -13 5 -14
9 -4 21 7 8 9 15 4 15 -5 0 -2 5 6 10 13 8 12 10 -2 10 -10 0 -18 -4 -18 -10
0 -5 -5 -10 -11 -10 -5 0 -7 5 -4 10 6 10 2 12 -47 15 -25 2 -27 -1 -21 -23 5
-20 3 -23 -8 -17 -12 8 -12 6 0 -9 10 -12 16 -13 21 -6 5 8 9 7 13 -4 8 -21
-3 -26 -46 -23 -29 3 -34 1 -25 -10 8 -10 6 -13 -8 -14 -17 -1 -17 -2 -1 -6
22 -6 22 -20 0 -41 -16 -16 -16 -16 -11 0 4 10 1 19 -8 22 -12 4 -12 10 -4 26
15 27 -10 28 -28 0 -8 -14 -9 -20 -1 -20 6 0 9 -7 5 -15 -3 -8 2 -18 11 -23
10 -6 13 -16 8 -31 -3 -12 -10 -19 -15 -16 -13 8 -40 -6 -40 -21 0 -8 -8 -14
-17 -14 -15 0 -16 -2 -3 -10 8 -5 10 -10 3 -10 -6 0 -9 -9 -5 -22 4 -17 2 -20
-11 -15 -10 4 -17 2 -17 -4 0 -6 -7 -9 -15 -6 -8 4 -17 2 -20 -3 -4 -6 -14
-10 -23 -10 -10 0 -13 3 -6 8 7 5 6 15 -3 32 -13 24 -13 24 -9 -14 2 -21 9
-42 16 -46 7 -4 9 -13 5 -19 -5 -9 -10 -9 -21 0 -12 9 -13 9 -9 -2 3 -8 15
-19 28 -24 24 -11 30 -36 9 -43 -7 -2 -10 2 -6 12 3 9 1 16 -5 16 -14 0 -14
-27 0 -36 8 -4 7 -9 -2 -15 -10 -6 -11 -9 -1 -9 6 0 12 -7 12 -16 0 -9 -6 -14
-12 -11 -7 2 -21 0 -30 -4 -11 -6 -22 -4 -32 6 -18 19 -32 19 -39 1 -3 -8 1
-13 11 -12 9 0 18 -7 20 -16 3 -15 -2 -14 -36 5 -36 19 -39 24 -29 42 6 11 10
30 8 41 -1 12 5 29 14 38 9 9 14 16 11 16 -3 0 0 14 5 30 6 17 15 30 20 30 5
0 9 7 9 15 0 20 52 125 62 125 4 0 8 -9 8 -20 0 -11 4 -20 10 -20 5 0 7 7 4
15 -4 8 -2 15 4 15 5 0 7 11 5 25 -4 19 0 25 21 31 14 3 26 10 26 15 0 13 -14
11 -28 -3 -7 -7 -12 -8 -12 -2 0 13 65 74 79 74 6 0 11 7 11 15 0 10 7 15 18
13 9 -2 16 3 15 10 -2 6 6 12 17 12 12 0 20 -7 20 -17 0 -15 2 -16 10 -3 8 12
10 12 11 -5 0 -13 2 -15 6 -6 3 8 -5 22 -18 32 l-24 19 23 0 c12 0 22 6 22 13
0 16 73 61 130 80 25 9 72 29 105 46 69 34 87 38 78 15z m1115 -156 c21 -13
73 -50 115 -83 64 -49 79 -67 88 -100 16 -58 6 -133 -36 -275 -98 -327 -111
-384 -130 -555 -4 -33 -11 -64 -15 -70 -13 -17 -32 -349 -21 -377 8 -20 6 -30
-10 -46 -10 -12 -19 -24 -19 -27 0 -3 -9 -15 -19 -26 -18 -20 -19 -20 -24 -2
-13 46 -29 270 -24 333 3 38 2 70 -3 70 -14 0 -18 -11 -24 -70 -4 -30 -9 -75
-11 -100 -3 -25 -1 -103 4 -175 9 -133 11 -141 73 -260 41 -80 78 -179 89
-240 5 -27 10 -140 12 -250 2 -207 3 -202 -40 -280 -42 -75 -51 -114 -57 -245
-4 -74 -11 -136 -17 -138 -5 -2 -9 -8 -9 -13 0 -6 5 -7 10 -4 18 11 10 -36
-11 -66 -11 -16 -39 -38 -62 -49 -23 -11 -64 -40 -91 -65 -29 -26 -56 -43 -64
-40 -10 3 -12 0 -8 -10 4 -12 -1 -15 -29 -13 -24 1 -35 7 -36 18 0 13 -1 13
-7 0 -4 -8 -16 -17 -26 -18 -15 -3 -18 0 -10 10 5 8 -1 3 -12 -10 -12 -14 -27
-21 -33 -18 -6 4 -11 2 -11 -4 0 -6 -4 -9 -9 -5 -5 3 -13 0 -16 -6 -4 -6 -17
-8 -30 -5 -15 4 -25 1 -29 -9 -4 -11 -20 -15 -56 -15 -32 0 -49 4 -45 10 8 14
-8 13 -22 -1 -7 -7 -19 -8 -30 -4 -10 5 -24 9 -32 9 -23 2 -24 23 -1 29 20 5
29 27 10 27 -5 0 -10 -5 -10 -11 0 -8 -5 -7 -15 1 -15 13 -31 17 -107 27 -21
3 -36 9 -33 14 6 8 70 3 86 -7 5 -3 6 2 3 10 -3 9 -10 13 -15 10 -5 -3 -9 4
-9 16 0 18 3 19 20 10 19 -10 22 -8 19 18 0 4 -6 6 -12 5 -7 -2 -19 12 -27 30
-7 17 -15 35 -18 40 -2 4 1 7 7 7 6 0 11 -5 11 -10 0 -6 12 -22 26 -35 20 -19
29 -22 39 -12 7 7 11 16 8 21 -3 4 -9 3 -12 -3 -5 -7 -13 -4 -23 8 -9 11 -14
22 -11 25 4 3 -1 6 -10 6 -10 0 -17 5 -17 11 0 5 -5 7 -11 4 -6 -4 -18 0 -27
9 -9 10 -26 23 -37 31 -20 14 -20 14 3 15 12 0 22 4 22 9 0 19 -20 22 -42 7
-12 -9 -19 -16 -14 -16 5 0 3 -7 -4 -15 -18 -21 -30 -19 -30 6 0 15 -5 19 -16
15 -8 -3 -12 -2 -9 4 3 6 1 10 -4 10 -6 0 -11 -5 -11 -11 0 -5 -4 -7 -10 -4
-5 3 -10 -3 -10 -14 0 -12 -2 -21 -4 -21 -2 0 -12 -3 -22 -7 -12 -5 -15 -3 -9
6 5 9 2 12 -10 9 -10 -1 -19 -11 -21 -20 -1 -11 3 -15 12 -11 8 3 21 0 29 -7
12 -10 15 -10 15 3 0 10 9 14 25 13 15 0 23 -6 21 -13 -3 -6 2 -14 10 -17 9
-3 14 1 14 14 0 13 5 18 15 14 16 -6 21 -34 6 -34 -7 0 -8 -19 -2 -52 0 -5 9
-8 19 -8 13 0 14 2 3 9 -10 7 -10 10 -1 16 7 4 16 1 21 -6 7 -12 12 -12 30 -1
18 12 23 12 30 0 6 -10 -4 -16 -43 -25 -29 -6 -56 -9 -60 -7 -4 3 -8 -2 -8
-11 0 -10 5 -13 12 -9 7 4 8 3 4 -4 -4 -6 -13 -9 -21 -5 -9 3 -15 -1 -15 -8 0
-11 -3 -11 -10 1 -12 19 -13 33 -1 26 11 -7 21 18 13 30 -7 9 -48 34 -57 34
-2 0 -1 -7 2 -17 4 -10 2 -14 -4 -10 -6 4 -13 -2 -16 -13 -5 -21 -27 -28 -27
-9 0 5 5 7 10 4 6 -3 10 3 10 14 0 12 -4 21 -9 21 -11 0 -25 -30 -22 -49 2
-11 0 -11 -12 0 -8 8 -11 16 -6 17 21 8 7 24 -16 19 -30 -5 -98 16 -101 32 -2
7 0 7 3 1 6 -12 43 -14 43 -2 0 5 -11 14 -24 20 -19 9 -25 8 -30 -4 -8 -22 4
-44 26 -44 13 0 17 -4 11 -12 -12 -20 -12 -38 0 -38 5 0 8 -2 5 -5 -7 -7 -39
6 -34 14 2 3 -2 15 -9 25 -13 17 -15 17 -29 3 -9 -9 -16 -26 -16 -39 -1 -21
-2 -21 -11 -5 -8 13 -7 22 2 33 6 8 9 17 5 21 -10 10 -18 -4 -20 -35 -1 -16
-9 -36 -18 -45 -18 -19 -32 -8 -22 17 3 9 -2 28 -11 43 -16 23 -16 25 -1 20
21 -9 43 -15 34 -10 -4 2 -4 11 -1 19 3 7 9 11 14 8 5 -3 9 2 9 11 0 9 -6 15
-12 13 -7 -1 -24 4 -36 11 -13 7 -26 10 -30 7 -7 -8 30 -36 40 -30 5 3 8 1 8
-4 0 -5 -12 -9 -26 -9 -34 0 -53 -19 -26 -27 19 -6 39 -46 23 -46 -11 0 -55
53 -57 70 -1 8 -5 27 -8 43 -4 16 -2 27 4 27 7 0 8 5 3 13 -4 6 -8 15 -8 19 0
20 -15 17 -16 -3 0 -13 -3 -18 -6 -12 -3 8 -14 11 -29 7 -23 -6 -36 10 -14 18
5 2 11 16 12 31 2 24 4 26 14 12 11 -15 14 -14 28 7 l16 22 0 -27 c0 -16 5
-26 13 -25 7 2 11 -6 9 -20 -3 -20 -1 -22 14 -14 14 8 21 6 30 -6 7 -9 18 -13
29 -8 17 6 17 8 -4 30 -11 12 -18 26 -14 30 5 4 -4 5 -19 1 -20 -5 -29 -2 -37
13 -15 28 -14 42 3 36 8 -3 17 -1 21 5 3 6 0 14 -9 17 -8 3 -17 12 -20 21 -5
12 -1 14 19 9 14 -4 25 -2 25 4 0 9 -23 15 -44 11 -25 -5 -52 10 -53 30 -3 29
-18 43 -38 35 -11 -4 -15 -12 -10 -24 5 -15 5 -16 -10 -2 -26 26 -36 78 -18
95 8 8 18 13 22 11 4 -3 8 5 8 17 1 12 -1 17 -5 11 -14 -22 -52 -35 -70 -25
-16 9 -16 10 1 16 9 4 17 14 17 22 0 12 3 13 13 4 10 -8 14 -7 14 5 0 9 -8 14
-21 13 -37 -2 -44 1 -49 22 -7 26 2 51 15 43 6 -4 5 -10 -3 -15 -11 -7 -10 -9
5 -9 12 0 16 -5 12 -15 -5 -14 -4 -14 16 0 25 17 53 20 43 5 -3 -5 -2 -10 4
-10 6 0 8 -6 5 -13 -3 -8 2 -20 11 -27 10 -8 15 -9 15 -1 0 6 -5 11 -11 11 -5
0 -7 5 -4 10 5 8 11 7 21 -1 8 -6 14 -9 14 -6 0 3 3 13 7 23 5 14 3 16 -11 11
-15 -6 -18 -3 -13 18 2 15 -1 32 -9 39 -7 8 -10 17 -6 21 4 5 -1 5 -10 2 -10
-4 -18 -2 -18 3 0 6 6 10 14 10 8 0 18 5 21 10 3 6 -3 10 -14 10 -12 0 -23
-10 -30 -27 -9 -26 -10 -25 -8 14 1 24 5 43 10 43 4 0 7 -4 7 -10 0 -5 6 -10
13 -10 18 0 16 52 -3 58 -13 5 -13 3 -1 -11 16 -21 5 -23 -14 -3 -12 12 -12
15 1 20 8 3 12 11 9 17 -10 15 -12 80 -3 85 5 3 8 10 8 16 0 7 -5 6 -14 -1
-11 -10 -15 -8 -20 6 -3 10 -4 6 -2 -8 2 -22 -1 -26 -20 -25 -15 1 -19 5 -13
12 5 6 6 14 2 17 -3 4 -1 7 5 7 7 0 12 5 12 11 0 5 -4 7 -10 4 -5 -3 -10 -1
-10 5 0 6 -5 8 -10 5 -6 -4 -8 -11 -5 -16 4 -5 2 -9 -3 -9 -5 0 -14 11 -19 23
-11 23 -10 24 27 20 21 -2 41 0 44 6 3 5 -4 7 -16 4 -17 -3 -19 -2 -9 5 8 6
29 11 47 11 58 3 62 4 57 18 -3 8 2 13 16 13 12 0 21 -6 21 -15 0 -8 5 -15 10
-15 6 0 10 4 10 9 0 6 -4 13 -10 16 -15 9 -12 25 5 25 10 0 16 -11 16 -32 2
-31 2 -31 6 -5 5 31 17 35 33 10 8 -13 13 -15 16 -5 7 15 54 -25 54 -46 0 -7
12 -24 26 -37 24 -22 27 -23 59 -9 52 22 113 17 175 -14 73 -36 100 -77 100
-151 0 -31 5 -96 10 -145 9 -91 12 -100 96 -256 23 -41 43 -81 45 -89 4 -11 9
-12 27 -2 12 6 22 17 22 24 0 8 -4 7 -10 -3 -11 -18 -12 -17 -34 50 -11 30
-32 82 -47 115 -31 69 -45 130 -59 266 -5 52 -16 112 -25 132 -8 20 -15 39
-15 43 0 4 23 4 51 1 37 -5 60 -15 86 -37 44 -39 83 -55 94 -39 3 6 13 9 20 7
8 -3 21 8 31 26 12 22 17 26 18 13 0 -10 -7 -25 -15 -33 -17 -17 -20 -44 -5
-44 6 0 10 8 10 17 0 15 2 14 15 -3 15 -18 16 -17 10 16 -7 39 -7 39 48 -40
16 -22 33 -37 39 -34 6 4 7 9 0 13 -5 3 -12 20 -16 36 -4 17 -22 48 -41 70
-19 21 -35 44 -35 50 0 7 -9 24 -20 37 -29 38 -117 48 -164 18 -64 -39 -197
-36 -213 6 -11 30 23 49 95 51 37 2 80 6 96 9 21 5 31 3 38 -10 5 -9 14 -16
20 -16 9 0 9 3 0 12 -20 20 -14 25 43 33 30 3 55 10 55 15 0 5 -25 28 -56 52
-95 72 -229 195 -255 232 -28 41 -39 46 -32 14 5 -22 4 -22 -9 1 -7 13 -22 29
-33 35 -11 6 -23 16 -27 21 -5 7 -8 6 -8 -1 0 -5 9 -20 20 -32 11 -12 20 -26
20 -31 0 -6 12 -22 28 -37 22 -21 23 -24 5 -15 -11 6 -31 27 -43 47 -16 24
-25 32 -30 23 -5 -6 -16 -9 -25 -5 -15 5 -15 9 -4 23 12 15 12 16 -3 10 -9 -3
-21 0 -27 7 -12 15 -3 56 13 56 18 0 22 120 6 181 -21 76 13 156 83 197 32 19
35 32 8 32 -48 0 -29 80 46 193 86 129 192 225 323 291 19 9 53 28 75 41 29
17 43 21 52 13 9 -7 13 -7 13 2 0 7 7 10 16 6 9 -3 12 -2 9 5 -4 5 -15 7 -26
4 -10 -4 -19 -2 -19 3 0 13 30 26 55 23 11 -2 17 0 13 4 -4 4 -3 16 3 27 10
19 11 19 25 1 14 -17 15 -17 9 5 -4 12 -2 23 4 23 6 1 17 2 24 3 7 1 11 13 9
33 -3 23 2 34 16 42 11 6 22 8 26 6 3 -3 2 0 -3 6 -11 13 13 44 27 35 5 -3 8
5 7 17 -1 12 2 28 8 35 14 17 1 15 -17 -4 -9 -8 -16 -11 -16 -5 0 15 30 42 41
36 5 -4 9 -4 9 -1 0 2 3 13 6 23 5 15 4 15 -4 3 -9 -12 -13 -9 -23 15 -11 27
-13 28 -16 9 -2 -12 -13 -24 -24 -27 -18 -5 -18 -4 2 21 11 15 26 27 32 28 35
3 40 5 34 10 -3 3 6 17 21 31 18 16 23 26 15 30 -7 2 -13 10 -13 16 0 8 3 8
11 0 8 -8 20 -6 45 9 39 23 42 27 14 25 -11 -1 -20 -5 -20 -10 0 -4 -5 -5 -10
-2 -12 8 38 51 65 56 11 3 20 9 20 16 0 6 3 14 7 18 4 4 4 13 2 20 -4 10 -13
9 -41 -7 -22 -14 -30 -23 -23 -28 8 -5 9 -10 2 -14 -6 -3 -13 -2 -17 4 -9 14
31 67 55 75 21 7 28 25 10 25 -5 0 -10 -4 -10 -10 0 -5 -7 -10 -15 -10 -8 0
-21 -11 -30 -23 -8 -13 -26 -30 -40 -37 -14 -7 -25 -19 -25 -25 0 -6 -7 -12
-15 -12 -13 0 -13 3 1 18 12 14 13 21 3 36 -11 19 -12 19 -36 -5 -23 -23 -26
-24 -35 -8 -5 9 -7 23 -5 30 6 15 107 38 107 25 0 -5 -4 -9 -10 -9 -5 0 -10
-7 -10 -15 0 -21 13 -19 37 8 11 12 31 30 44 40 18 13 21 20 11 26 -14 8 -3
51 21 79 17 21 107 9 155 -20z m952 -786 c14 -15 32 -40 40 -57 8 -16 18 -32
21 -35 10 -8 22 -133 13 -127 -5 3 -9 -26 -9 -64 l0 -69 51 -48 c29 -26 73
-65 98 -87 58 -49 124 -135 138 -178 21 -69 35 -136 27 -131 -5 3 -9 2 -10 -3
0 -4 -2 -18 -3 -31 -2 -13 4 -26 11 -31 8 -4 17 -27 20 -52 3 -33 2 -40 -6
-29 -12 17 -14 10 -5 -14 3 -9 10 -13 15 -10 5 3 9 -6 9 -20 0 -14 -4 -26 -10
-26 -5 0 -10 -5 -10 -11 0 -5 5 -7 10 -4 6 3 10 2 10 -4 0 -5 -4 -13 -10 -16
-5 -3 -10 -11 -10 -16 0 -6 4 -7 10 -4 6 4 8 -21 6 -67 -1 -40 -1 -63 1 -50 3
13 12 22 23 22 15 0 19 12 25 68 l7 67 24 -45 c12 -25 27 -54 33 -65 5 -11 19
-30 30 -42 54 -57 82 -189 42 -200 -12 -3 -24 -21 -32 -49 -8 -25 -31 -68 -53
-97 -46 -61 -83 -145 -90 -210 -4 -26 -4 -47 -1 -47 3 0 16 24 29 53 21 49 71
130 111 182 14 19 15 18 10 -15 -4 -19 -8 -53 -10 -75 -1 -22 -3 -43 -4 -47
-1 -4 -22 -28 -47 -54 -25 -27 -67 -75 -94 -109 -27 -33 -74 -78 -106 -100
-31 -22 -79 -60 -105 -83 -29 -26 -53 -41 -60 -36 -7 4 -19 -2 -28 -15 -10
-12 -33 -26 -51 -30 -19 -5 -44 -12 -54 -16 -16 -7 -18 -5 -14 18 3 14 2 26
-1 25 -18 -2 -21 4 -10 23 8 17 8 20 -1 14 -8 -5 -11 -3 -8 6 3 8 14 15 26 15
16 1 22 -5 22 -20 1 -21 1 -21 15 -2 8 11 15 27 15 35 0 14 -1 14 -10 1 -8
-13 -10 -13 -10 2 0 23 16 32 24 12 3 -8 10 -13 15 -9 5 3 17 -5 26 -17 10
-13 15 -16 12 -8 -2 8 0 23 5 32 4 10 5 30 2 45 l-7 26 -19 -23 c-10 -12 -20
-21 -23 -19 -2 3 14 25 36 49 22 25 38 39 34 33 -3 -7 -2 -13 3 -13 6 0 10 10
11 23 0 12 3 49 7 82 5 52 1 82 -21 155 -1 3 -7 18 -14 34 -23 56 -19 106 9
106 11 0 20 5 20 10 0 6 5 10 11 10 6 0 9 -7 5 -15 -3 -8 -4 -15 -2 -15 3 0
11 -3 20 -6 10 -4 16 -1 16 9 0 8 -6 17 -12 20 -9 3 -8 7 4 12 16 6 16 9 1 31
-14 21 -14 24 0 24 8 0 17 -5 19 -12 3 -7 7 -5 11 6 4 10 3 15 -3 11 -6 -3
-10 -1 -10 4 0 6 -10 11 -22 11 -17 0 -19 3 -9 9 7 5 23 6 35 4 21 -5 21 -5 1
10 -18 15 -18 16 -2 17 19 0 24 20 5 20 -7 0 -22 8 -33 17 -14 11 -15 14 -4
10 14 -5 16 1 13 34 -2 21 -6 57 -8 78 -2 23 -13 50 -26 63 -23 25 -23 44 0
153 5 27 7 64 4 83 -5 25 -2 38 14 55 30 33 39 56 46 118 4 37 1 67 -7 86 -15
36 -63 92 -99 115 -23 15 -117 35 -143 30 -6 -1 -11 31 -13 76 -4 101 -9 154
-15 172 -3 8 -8 77 -12 153 l-6 139 23 -7 c13 -4 34 -19 48 -33z m-219 -538
c30 -11 75 -16 140 -16 135 1 196 -24 233 -97 25 -48 14 -122 -25 -158 -27
-26 -28 -31 -22 -85 5 -50 2 -68 -22 -123 -15 -37 -33 -65 -41 -65 -8 0 -42 9
-77 21 -41 14 -83 20 -127 19 -104 -3 -123 -3 -165 3 -22 3 -46 6 -53 6 -7 1
-10 6 -7 11 3 6 1 10 -6 10 -7 0 -9 3 -6 6 4 4 12 2 19 -3 16 -12 48 -13 48
-1 0 4 5 8 11 8 5 0 8 -4 5 -9 -3 -5 0 -11 8 -14 9 -4 12 0 9 13 -6 22 -23 27
-90 25 -36 -2 -54 2 -57 11 -3 8 1 14 9 14 17 0 17 2 9 24 -3 9 -12 16 -20 16
-8 0 -14 5 -14 10 0 6 7 10 15 10 8 0 15 -4 15 -9 0 -17 40 -19 51 -3 9 15 10
15 5 -1 -3 -10 -6 -24 -6 -30 0 -8 -4 -7 -12 1 -18 18 -27 15 -21 -8 7 -25 19
-25 40 -1 18 22 35 19 26 -4 -3 -10 1 -15 12 -15 11 0 15 5 12 15 -4 8 -2 17
3 20 6 4 10 -3 10 -15 0 -12 4 -18 11 -15 6 4 8 13 5 21 -3 8 0 11 10 7 10 -4
14 3 14 23 1 25 2 26 11 12 7 -12 6 -24 -2 -39 -8 -16 -8 -20 0 -14 7 4 18 1
26 -5 11 -9 15 -9 15 -1 0 6 -5 11 -11 11 -6 0 -9 6 -6 13 2 6 11 11 21 9 9
-2 16 3 16 10 0 10 3 9 9 -2 12 -17 4 -33 -11 -24 -7 5 -8 2 -4 -5 5 -7 14
-10 22 -7 7 3 20 -2 28 -10 17 -17 86 -47 92 -41 9 9 -17 59 -43 84 -16 14
-20 20 -11 13 9 -6 23 -8 30 -4 7 4 10 4 6 -1 -4 -4 -3 -14 3 -22 19 -22 28
-15 16 12 -7 13 -19 24 -27 22 -8 -1 -14 4 -12 11 1 8 -1 11 -5 9 -5 -3 -15 2
-23 11 -13 14 -12 15 2 9 12 -4 16 -1 15 14 -1 10 -7 19 -14 19 -12 0 -18 20
-14 43 1 5 -3 6 -8 3 -5 -4 -12 -2 -16 4 -4 6 -10 8 -14 5 -5 -2 -20 7 -35 22
-14 14 -37 27 -50 28 -14 2 -31 6 -38 11 -10 5 -11 4 0 -7 6 -7 12 -20 12 -28
-1 -13 -4 -12 -15 3 -8 11 -18 17 -22 13 -10 -11 -13 -57 -2 -57 5 0 9 -5 9
-11 0 -7 11 -22 26 -35 17 -17 20 -24 10 -24 -8 0 -18 5 -21 10 -12 19 -23 10
-30 -22 -7 -29 -8 -30 -21 -14 -12 17 -14 17 -29 2 -9 -9 -18 -16 -21 -16 -8
0 -41 37 -47 53 -9 24 14 33 30 12 12 -17 13 -17 13 11 0 22 -3 25 -10 14 -8
-12 -10 -12 -16 3 -6 17 11 47 27 47 4 0 20 5 36 11 46 17 7 28 -66 18 -70
-10 -135 -30 -184 -57 -18 -9 -36 -17 -42 -17 -13 -1 -72 -34 -62 -35 5 0 -6
-12 -24 -27 -18 -16 -42 -26 -53 -24 -17 2 -18 1 -8 -12 11 -13 8 -21 -18 -50
-21 -25 -36 -34 -50 -30 -11 3 -20 0 -20 -6 0 -6 7 -8 17 -4 14 6 14 3 -2 -25
-17 -29 -35 -34 -35 -11 0 6 -9 28 -20 51 l-19 40 26 37 26 36 -27 -27 c-33
-35 -42 -35 -50 -3 -6 23 8 41 105 144 94 101 121 124 178 150 159 73 380 103
482 65z m-461 -450 c0 -9 5 -12 12 -8 7 4 8 3 4 -4 -4 -6 -13 -9 -21 -5 -18 6
-20 -8 -3 -25 15 -15 49 3 42 23 -5 11 -2 13 10 9 9 -3 16 -10 16 -15 0 -5 6
-9 13 -9 6 0 25 -14 41 -30 22 -23 33 -27 47 -20 12 7 27 6 46 -1 15 -7 41
-11 56 -10 16 1 26 -2 23 -7 -3 -5 1 -9 9 -9 8 0 15 4 15 9 0 4 7 8 16 8 8 0
13 -4 9 -9 -3 -5 -1 -12 5 -16 5 -3 10 0 10 9 0 11 12 14 48 14 26 1 79 2 117
3 39 2 86 -2 105 -9 19 -6 54 -16 77 -22 24 -6 44 -18 47 -28 3 -9 16 -22 28
-27 29 -13 42 -56 33 -112 -6 -41 -8 -43 -20 -26 -13 16 -14 15 -10 -14 4 -34
-10 -39 -42 -12 -16 15 -42 28 -68 35 -137 38 -167 43 -221 38 -32 -2 -69 -5
-81 -5 -13 -1 -20 -5 -17 -10 6 -10 -27 -6 -58 6 -13 5 -18 2 -18 -8 0 -9 -5
-19 -10 -22 -6 -4 -9 -1 -8 6 2 7 -5 15 -14 17 -10 2 -18 -2 -18 -8 0 -6 5 -8
12 -4 6 4 8 3 5 -2 -10 -17 -113 -14 -213 6 -99 20 -123 19 -92 -4 10 -7 14
-17 10 -21 -4 -5 -1 -5 6 -1 7 4 23 1 35 -7 12 -8 40 -18 62 -21 30 -5 46 -15
62 -39 21 -30 22 -42 18 -142 -3 -93 -2 -110 13 -121 14 -10 22 -8 45 8 16 11
31 28 35 37 3 9 16 33 30 55 14 23 20 42 15 47 -16 16 -37 0 -57 -41 -21 -43
-56 -81 -43 -47 4 10 7 27 7 38 0 11 5 16 13 13 14 -5 17 22 4 43 -10 16 3 44
17 37 6 -3 3 1 -6 9 -18 15 -24 37 -10 37 7 0 22 -17 41 -48 5 -8 18 -10 39
-6 17 4 29 11 26 16 -3 5 -12 7 -20 4 -8 -3 -23 3 -34 14 -19 19 -19 20 -2 20
10 0 23 -5 30 -12 14 -14 23 -7 25 20 1 16 4 18 19 8 10 -6 18 -18 19 -26 1
-16 1 -15 15 29 4 11 8 10 24 -4 10 -9 16 -23 13 -31 -3 -8 0 -14 7 -14 6 0 8
5 5 10 -3 6 -1 10 5 10 6 0 9 4 6 8 -8 13 40 36 55 27 8 -5 10 -4 5 3 -4 7
-18 12 -31 12 -14 0 -25 7 -28 18 -4 13 -5 12 -6 -4 -1 -26 -24 -37 -40 -21
-9 9 -14 8 -21 -3 -6 -9 -10 -10 -10 -3 0 6 5 15 10 18 6 4 8 11 5 16 -9 14 2
11 19 -7 9 -8 16 -11 16 -5 0 5 -7 17 -17 26 -15 16 -13 17 23 14 22 -2 45 0
51 4 15 9 25 -7 17 -28 -4 -8 -3 -15 2 -14 18 3 54 -14 48 -22 -3 -5 -1 -9 5
-9 5 0 13 5 16 10 3 6 1 10 -6 10 -7 0 -3 9 9 20 27 25 80 17 92 -14 7 -16 9
-17 9 -4 1 11 7 15 21 11 11 -3 20 -9 20 -14 0 -5 7 -9 16 -9 11 0 14 -5 10
-16 -5 -12 -2 -15 9 -10 9 3 13 2 10 -3 -3 -5 -1 -12 5 -16 12 -7 14 -65 2
-65 -20 0 -8 -77 21 -132 25 -48 31 -71 31 -127 1 -57 -3 -73 -26 -109 -15
-23 -54 -60 -85 -83 -32 -23 -62 -45 -66 -49 -5 -4 -3 -26 3 -49 6 -23 13 -81
15 -128 4 -71 1 -91 -16 -124 -18 -36 -102 -143 -153 -195 -34 -35 -175 -144
-186 -144 -35 0 -270 -247 -270 -284 0 -25 -78 -179 -103 -202 -12 -11 -23
-27 -25 -35 -2 -8 -7 -15 -12 -17 -5 -2 -24 -16 -42 -32 -18 -17 -37 -30 -42
-30 -5 0 -24 -11 -42 -25 -18 -14 -36 -25 -40 -25 -4 0 -28 -13 -53 -28 -25
-15 -93 -49 -151 -76 -65 -29 -122 -62 -147 -86 -22 -22 -44 -36 -48 -32 -5 4
-5 2 -2 -4 9 -16 -57 -91 -67 -76 -4 7 -2 12 4 12 6 0 9 4 5 10 -3 5 -13 7
-23 4 -14 -5 -15 -4 -2 5 8 5 11 13 8 16 -10 10 -28 -4 -28 -21 0 -8 -4 -14
-10 -14 -5 0 -10 -5 -10 -11 0 -6 8 -8 18 -5 22 7 27 -27 6 -45 -10 -8 -14 -8
-14 0 0 6 5 11 10 11 6 0 10 4 10 8 0 5 -21 9 -47 11 -48 2 -65 14 -56 38 6
15 -6 17 -27 3 -8 -5 -10 -10 -4 -10 7 0 11 -11 10 -25 -1 -24 -16 -37 -16
-14 0 7 -9 9 -21 6 -14 -4 -19 -2 -16 7 3 7 1 19 -4 27 -7 11 -9 11 -9 -3 0
-11 -6 -15 -20 -11 -29 8 -26 -24 3 -33 21 -7 21 -7 2 -14 -11 -4 -27 -4 -37
1 -11 6 -18 4 -22 -6 -7 -18 -46 -20 -47 -2 0 6 -4 3 -9 -8 -14 -32 -12 -35
16 -25 33 13 44 13 44 -1 0 -6 -7 -8 -16 -5 -9 4 -13 2 -8 -5 4 -8 -1 -9 -15
-4 -20 6 -21 3 -20 -45 2 -34 7 -54 18 -61 13 -8 13 -9 1 -6 -8 2 -31 -3 -50
-11 -32 -13 -33 -13 -20 4 13 15 13 17 0 12 -8 -2 -17 -13 -20 -24 -6 -21 -26
-25 -52 -9 -11 7 -18 26 -20 51 -2 24 -8 40 -13 37 -6 -2 -11 4 -12 14 -5 57
-14 106 -24 124 -6 11 -8 23 -5 26 3 3 -2 12 -11 18 -14 11 -15 16 -5 28 10
12 10 17 1 23 -8 5 -9 3 -4 -6 5 -8 3 -11 -6 -8 -8 3 -14 15 -13 27 0 14 -4
20 -13 17 -15 -6 -32 23 -25 44 5 13 3 13 -11 1 -15 -12 -17 -11 -17 3 0 9 -6
15 -12 14 -7 -2 -12 5 -12 15 1 12 -2 15 -10 9 -27 -22 -103 15 -92 45 3 7 1
13 -3 13 -5 0 -7 8 -4 18 6 24 -25 52 -36 33 -6 -9 -12 -3 -20 20 -6 18 -9 34
-7 36 2 3 7 -5 11 -16 7 -22 55 -31 55 -11 0 6 5 10 12 10 6 0 4 -8 -6 -19
-21 -23 -6 -36 20 -16 17 12 17 17 6 35 -7 12 -11 25 -8 28 3 3 6 0 6 -6 0 -7
4 -11 9 -10 4 2 18 -8 29 -22 11 -14 24 -22 28 -18 4 5 -3 16 -14 27 -26 21
-29 41 -7 41 9 0 20 -11 27 -25 15 -34 26 -23 22 22 l-4 38 17 -27 c17 -28 48
-39 41 -16 -3 7 4 21 14 32 18 20 18 20 34 0 8 -10 13 -13 9 -6 -3 6 -1 12 4
12 18 0 26 -5 23 -12 -1 -5 2 -8 8 -8 13 0 13 33 -1 47 -8 8 -8 16 0 30 10 17
10 17 11 0 0 -14 5 -17 23 -11 12 4 25 11 29 17 9 14 0 29 -13 22 -5 -4 -9 -1
-9 6 0 6 8 9 18 7 16 -4 42 18 42 35 0 8 -42 0 -48 -10 -4 -6 -17 -13 -29 -17
-17 -5 -23 -3 -23 7 0 9 6 18 13 20 7 3 5 6 -5 6 -10 1 -18 -6 -18 -14 0 -12
-4 -13 -19 -5 -13 7 -17 16 -13 32 5 21 6 21 13 2 4 -10 8 -13 8 -6 1 13 51
17 51 4 0 -5 15 -7 34 -6 37 3 62 -16 52 -41 -9 -26 2 -16 17 14 12 25 12 29
-2 39 -13 9 -10 10 14 5 28 -6 29 -6 12 11 -25 25 -21 36 12 36 28 0 47 22 35
41 -3 5 0 9 6 9 8 0 9 -10 5 -30 -4 -18 -2 -30 3 -30 6 0 13 14 17 31 5 23 3
34 -12 45 -16 13 -16 13 0 8 13 -5 16 -2 11 10 -3 9 -9 16 -13 16 -4 0 -16 7
-27 16 -18 14 -18 15 4 4 12 -6 22 -7 22 -3 0 11 -43 48 -52 46 -3 -1 -9 4
-12 12 -3 8 -1 15 4 15 6 0 10 5 10 11 0 5 -4 7 -10 4 -6 -4 -10 5 -10 20 0
24 2 25 23 13 12 -7 37 -13 54 -14 l33 -3 -17 32 c-9 18 -17 35 -18 39 0 14
-15 21 -15 7 -1 -11 -3 -11 -13 2 -7 9 -23 19 -35 23 -38 12 -19 16 21 5 20
-5 46 -20 57 -31 11 -12 23 -18 27 -13 5 4 2 10 -4 12 -7 3 -13 13 -13 23 0
10 -7 20 -15 24 -28 10 -17 35 16 34 23 -1 34 -8 45 -30 8 -15 19 -28 24 -28
6 0 10 -13 10 -30 0 -31 -9 -37 -27 -19 -7 7 -10 2 -10 -18 0 -15 2 -22 4 -16
3 9 14 6 36 -10 18 -12 34 -25 35 -29 7 -17 24 -7 17 10 -4 12 0 10 15 -6 25
-26 37 -23 22 5 -9 16 -7 19 10 20 12 1 34 -5 49 -13 15 -7 40 -14 55 -14 25
0 26 1 11 23 -8 12 -24 22 -35 22 -11 0 -23 3 -27 6 -14 15 108 -1 124 -15 10
-9 22 -16 27 -16 5 1 -7 14 -26 30 -38 33 -33 41 7 10 14 -11 30 -17 35 -14 5
4 -4 15 -21 25 -17 10 -31 26 -31 34 0 8 -5 15 -11 15 -5 0 -7 5 -4 10 4 6 16
8 28 4 22 -6 22 -6 2 10 -29 22 -42 20 -47 -9 -4 -17 -1 -25 8 -25 8 0 14 -4
14 -10 0 -10 -12 -13 -27 -7 -5 1 -7 13 -6 26 1 14 -2 30 -8 37 -7 9 -5 16 11
24 21 11 18 35 -4 27 -6 -3 -16 1 -21 7 -16 18 -11 50 7 54 13 3 17 -1 13 -15
-3 -11 -1 -9 6 5 15 27 29 28 52 2 22 -26 22 -41 0 -33 -11 4 -14 3 -9 -5 4
-7 2 -12 -4 -12 -7 0 -5 -7 4 -16 9 -8 14 -20 11 -25 -6 -9 42 -25 51 -17 2 3
6 14 8 24 3 11 7 26 11 35 9 25 -14 34 -30 13 -8 -11 -15 -14 -15 -7 0 10 48
67 51 60 7 -14 5 -78 -2 -82 -5 -4 -7 -11 -3 -16 3 -5 1 -16 -6 -24 -9 -11 -7
-16 8 -24 11 -6 22 -7 26 -4 3 3 6 2 6 -4 0 -6 6 -13 14 -16 10 -4 13 3 11 24
-2 22 2 29 16 29 11 0 16 5 13 13 -2 7 7 26 21 41 35 38 32 78 -4 44 -10 -11
-12 -9 -9 7 2 11 11 20 19 19 11 -1 15 8 14 30 -1 25 7 38 44 71 124 109 131
117 137 170 3 27 8 53 11 58 3 5 9 64 13 130 7 112 11 130 47 212 63 143 75
190 74 288 0 50 4 87 9 87 6 0 10 -5 10 -12 0 -6 2 -9 5 -6 9 8 -6 38 -16 32
-12 -7 -17 9 -24 71 -3 28 -10 82 -15 120 -13 98 -13 101 12 102 16 2 19 0 9
-6 -9 -6 -10 -14 -5 -22 5 -8 9 -17 9 -21 0 -17 15 -19 15 -2 1 18 1 18 11 1
5 -9 8 -21 5 -25 -2 -4 4 -9 15 -9 10 -1 19 2 19 8 0 5 -4 9 -10 9 -5 0 -10 4
-10 8 0 4 12 7 28 6 39 -2 82 -15 82 -25 0 -13 -60 -7 -60 6 0 5 -5 2 -11 -8
-13 -22 -6 -30 37 -45 27 -9 38 -6 73 15 31 18 49 23 71 18 25 -6 30 -4 30 13
0 11 -7 25 -15 32 -8 7 -13 16 -10 20 3 5 0 12 -6 16 -8 5 -9 3 -4 -6 5 -8 3
-11 -6 -8 -8 3 -13 11 -11 17 1 6 -7 11 -18 11 -11 0 -20 7 -20 15 0 8 -6 15
-13 15 -8 0 -30 18 -50 41 -37 40 -46 56 -27 44 6 -3 10 1 10 9 0 9 7 16 15
16 8 0 15 -7 15 -16z m-3240 -160 c0 -8 6 -11 15 -8 12 5 15 -3 16 -32 2 -31
3 -33 6 -11 5 31 6 31 36 16 33 -18 37 -30 22 -65 -13 -32 -10 -74 5 -74 4 0
10 -12 14 -27 3 -16 8 -38 12 -50 4 -14 2 -23 -4 -23 -6 0 -12 10 -14 22 -4
28 -27 36 -25 9 1 -12 5 -21 10 -21 4 0 5 -4 2 -10 -3 -5 -1 -18 4 -27 6 -10
11 -12 11 -5 0 6 8 12 18 11 10 0 12 -3 5 -6 -7 -2 -13 -9 -13 -15 0 -6 7 -8
15 -4 8 3 15 0 15 -7 0 -7 10 -30 22 -52 11 -22 24 -55 28 -72 7 -29 5 -33
-12 -33 -11 0 -41 20 -66 45 -25 25 -49 45 -53 45 -20 0 -15 -21 17 -68 37
-56 76 -82 123 -82 66 0 78 59 32 161 -39 87 -77 204 -84 262 -8 55 -4 57 79
27 56 -19 117 -61 204 -139 25 -22 49 -41 53 -41 9 0 197 -185 197 -194 0 -3
-8 -2 -17 1 -15 6 -16 5 -3 -9 8 -9 17 -12 18 -7 5 12 55 -28 63 -49 3 -10 -3
-23 -15 -34 -12 -9 -16 -17 -9 -18 6 0 14 4 17 8 10 17 51 5 63 -19 10 -19 10
-27 -2 -38 -8 -8 -18 -11 -22 -7 -4 4 -1 11 6 16 8 4 11 15 8 25 -4 9 -11 14
-16 10 -5 -3 -13 -1 -16 5 -11 17 -35 -8 -27 -28 5 -15 4 -16 -10 -1 -8 8 -19
30 -23 49 -6 28 -9 31 -17 16 -7 -12 -16 -15 -31 -10 -19 6 -20 5 -8 -10 11
-13 11 -16 0 -17 -10 0 -10 -2 -2 -5 19 -8 4 -32 -18 -27 -10 3 -19 0 -19 -6
0 -6 11 -11 25 -11 14 0 25 -5 25 -11 0 -6 -6 -7 -12 -2 -7 4 -5 -5 5 -21 11
-15 17 -37 14 -47 -3 -11 2 -23 11 -28 15 -9 15 -11 1 -28 -9 -10 -14 -24 -12
-30 3 -7 0 -13 -6 -13 -6 0 -8 -7 -4 -16 3 -9 9 -12 12 -7 9 12 53 15 46 3 -8
-13 17 -13 33 0 9 7 9 7 2 -2 -6 -8 -6 -16 2 -25 8 -10 8 -17 -2 -26 -10 -10
-12 -9 -7 6 4 11 1 17 -8 17 -18 0 -18 -5 -5 -31 6 -11 7 -19 2 -19 -6 0 -12
-9 -15 -20 -3 -11 -1 -20 4 -20 5 0 9 6 9 14 0 7 6 18 13 25 11 8 14 -9 15
-97 3 -158 8 -181 47 -206 13 -9 26 -24 30 -35 3 -10 15 -21 27 -24 22 -6 22
-6 -3 -25 -37 -30 -81 -50 -135 -63 -68 -16 -104 -32 -104 -46 0 -13 -34 -35
-47 -31 -4 2 -8 -1 -8 -5 0 -24 -45 -29 -107 -12 -31 8 -37 -5 -13 -25 18 -15
20 -40 3 -40 -6 0 -20 -8 -31 -17 -11 -10 -22 -13 -24 -8 -10 29 -23 40 -31
27 -10 -15 -47 16 -57 47 -3 10 -17 26 -30 35 -14 9 -25 21 -25 26 0 6 -22 44
-49 85 -27 41 -52 83 -56 95 -4 12 -17 26 -30 32 -13 6 -34 31 -46 57 -12 25
-26 54 -31 63 -4 10 -8 26 -8 35 0 12 7 7 20 -14 11 -18 22 -33 25 -33 7 0 -7
33 -27 63 -11 15 -17 27 -13 27 3 0 3 5 0 11 -13 20 -34 -25 -34 -71 0 -65 18
-106 86 -201 33 -46 70 -103 82 -126 11 -23 41 -71 66 -107 28 -40 41 -67 35
-71 -6 -4 -17 -2 -24 4 -10 9 -15 8 -20 -4 -6 -16 -26 -16 -38 0 -5 6 -8 5 -8
-3 0 -10 -5 -10 -21 -2 -11 6 -25 9 -32 7 -7 -3 -1 -9 13 -15 19 -8 5 -9 -57
-5 -46 3 -83 2 -83 -2 0 -4 18 -34 40 -66 22 -32 40 -62 40 -67 0 -4 9 -8 20
-9 25 -2 25 9 0 32 -31 28 -15 30 22 4 18 -13 34 -22 36 -20 2 1 15 -1 30 -7
15 -6 52 -14 82 -19 l55 -9 -37 -16 c-37 -17 -81 -28 -128 -32 -27 -3 -50 14
-50 37 0 8 -9 13 -22 13 -13 -1 -23 5 -24 12 -1 6 -3 15 -4 20 -1 4 -2 10 -1
14 1 9 -48 23 -55 16 -2 -3 2 -20 10 -38 12 -30 14 -32 25 -14 7 10 11 13 8 5
-2 -8 -11 -19 -20 -25 -20 -13 -45 15 -41 48 1 11 3 24 3 29 1 4 8 7 16 7 8 0
15 5 15 10 0 14 -12 12 -38 -6 -26 -18 -31 -16 -37 15 -2 11 -6 24 -8 29 -13
20 -26 140 -16 144 10 4 21 48 12 48 -4 0 -19 9 -33 20 -21 17 -23 21 -10 31
13 9 12 10 -2 5 -12 -3 -18 0 -18 9 0 8 -10 20 -22 26 l-21 12 21 -37 c24 -41
26 -46 14 -46 -5 0 -17 16 -28 35 -10 19 -22 35 -27 35 -4 0 -6 -4 -3 -9 3 -5
0 -11 -8 -14 -9 -4 -12 0 -9 12 2 10 -3 23 -11 30 -23 20 -22 101 2 102 15 1
15 2 1 6 -12 3 -15 11 -11 25 3 13 1 19 -5 15 -15 -9 -73 49 -73 73 0 11 -6
20 -13 20 -15 0 -55 41 -80 82 -30 47 -44 136 -37 222 6 66 14 92 52 166 25
48 80 139 122 203 69 105 128 221 188 374 18 46 23 52 49 51 17 -1 29 -7 29
-14z m1237 1 c26 -18 28 -65 3 -65 -10 0 -27 -3 -37 -6 -15 -6 -16 -4 -5 7 15
16 16 29 1 29 -5 0 -7 -4 -4 -10 3 -5 -1 -10 -9 -10 -9 0 -16 5 -16 12 0 6 -3
9 -6 6 -3 -3 0 -15 8 -27 11 -17 10 -25 -5 -50 -19 -32 -22 -61 -7 -61 5 0 13
6 17 13 4 8 22 24 39 36 28 20 35 21 94 12 58 -10 114 -41 99 -56 -3 -3 -44
-13 -90 -22 -75 -15 -88 -21 -126 -58 -39 -38 -43 -47 -43 -91 0 -72 22 -145
80 -274 69 -154 120 -279 120 -296 0 -8 4 -14 10 -14 5 0 16 -12 24 -27 8 -16
15 -21 16 -13 0 9 3 11 10 4 14 -14 1 -52 -21 -59 -10 -4 -19 -13 -19 -20 0
-18 -16 -27 -54 -31 -45 -6 -58 -12 -50 -26 5 -10 4 -10 -6 -1 -18 16 5 44 28
36 15 -6 15 -5 -1 14 -9 11 -14 23 -10 26 3 4 1 7 -6 7 -8 0 -10 -7 -6 -20 5
-14 2 -20 -9 -20 -9 0 -16 9 -16 20 0 12 -6 33 -14 48 -8 15 -28 69 -45 121
-19 57 -43 107 -61 128 -28 31 -34 45 -31 66 0 4 -3 7 -8 7 -5 0 -12 20 -15
45 -4 24 -11 47 -17 50 -5 4 -7 11 -4 16 4 5 1 9 -4 9 -6 0 -11 12 -11 28 0
15 -5 44 -11 66 -14 50 -32 34 -33 -29 -1 -25 -4 -45 -8 -45 -5 0 -8 5 -8 10
0 6 -8 10 -17 10 -15 0 -16 -2 -3 -10 8 -5 11 -12 7 -17 -10 -9 -27 16 -27 41
0 11 5 16 14 13 9 -4 15 3 18 22 6 43 -1 55 -22 36 -17 -15 -19 -15 -25 4 -3
12 -11 21 -17 21 -6 0 -6 6 2 15 17 21 28 19 33 -7 4 -20 4 -19 6 5 0 15 6 26
12 25 6 -2 14 3 17 11 3 10 0 12 -12 8 -9 -4 -16 -2 -16 4 0 6 9 13 20 16 11
3 23 16 26 29 3 13 12 24 20 24 17 0 18 12 2 29 -11 10 -8 10 13 2 24 -9 26
-8 22 17 -3 20 -2 23 5 13 9 -12 12 -12 24 0 8 8 18 27 22 42 3 15 10 26 15
23 4 -3 6 7 4 22 -4 26 -4 26 11 8 14 -17 16 -17 16 -4 0 9 -5 20 -10 23 -6 4
-8 16 -4 28 6 19 5 20 -10 8 -22 -19 -20 -4 5 27 31 40 80 52 116 27z m85
-283 c-3 -18 2 -22 22 -22 37 0 32 -15 -6 -18 -18 -2 -35 -7 -39 -13 -3 -6
-10 -10 -15 -9 -5 1 -10 -4 -13 -11 -2 -6 1 -9 7 -5 6 3 13 -3 17 -14 4 -11
12 -19 18 -18 7 1 22 -4 35 -11 13 -7 30 -10 37 -7 17 6 29 -9 20 -24 -5 -8
-11 -7 -21 1 -11 9 -14 8 -14 -5 0 -9 -7 -16 -16 -16 -13 0 -14 3 -5 14 12 15
-4 26 -36 26 -12 0 -13 -3 -4 -14 9 -11 10 -20 1 -36 -11 -20 -10 -21 9 -10
17 9 22 8 27 -5 3 -8 3 -22 0 -31 -4 -12 -1 -14 14 -9 15 5 18 3 14 -10 -4 -9
-13 -14 -21 -11 -8 3 -21 6 -29 6 -11 0 -13 6 -9 20 5 15 2 20 -11 20 -13 0
-15 6 -10 33 4 23 3 28 -4 17 -9 -14 -15 -7 -10 15 1 6 -4 5 -11 -2 -10 -10
-9 -15 1 -28 7 -8 9 -15 4 -15 -4 0 -3 -5 4 -12 14 -14 16 -42 2 -33 -5 3 -10
1 -10 -4 0 -6 7 -11 16 -11 8 0 13 -4 10 -9 -3 -5 1 -12 10 -15 10 -4 13 -13
9 -25 -3 -12 0 -21 10 -24 8 -4 12 -13 9 -22 -3 -8 -2 -15 3 -15 5 0 9 -9 9
-20 0 -11 -4 -20 -8 -20 -4 0 -5 -7 -1 -16 4 -10 16 -14 37 -12 27 3 32 -1 35
-22 l3 -25 -23 20 c-19 17 -22 18 -16 3 4 -10 2 -18 -3 -18 -6 0 -10 -4 -10
-10 0 -5 6 -7 14 -4 8 3 17 1 20 -5 4 -6 14 -7 23 -4 11 4 14 3 9 -5 -4 -7
-18 -12 -32 -12 -15 0 -24 -6 -24 -16 0 -8 -5 -12 -11 -9 -5 4 -8 12 -6 18 5
15 -35 105 -68 155 -16 24 -28 60 -32 93 -3 30 -13 70 -22 89 -9 19 -18 49
-19 67 -3 36 33 113 53 113 7 0 18 7 25 15 17 21 36 13 32 -13z m-372 -336 c0
-7 -10 -16 -22 -19 -18 -5 -20 -8 -8 -22 13 -16 15 -15 27 1 7 10 13 27 13 38
1 20 1 20 11 3 6 -10 8 -24 5 -32 -2 -7 2 -16 10 -19 12 -5 14 -1 9 15 -14 43
17 13 38 -36 11 -28 33 -68 49 -89 21 -30 25 -42 15 -48 -8 -6 -4 -10 13 -15
25 -7 25 -7 3 -12 -17 -5 -20 -10 -13 -21 8 -13 11 -13 19 -1 6 10 12 4 21
-23 6 -20 9 -42 7 -49 -3 -6 -6 -2 -6 11 -1 23 -26 31 -33 10 -3 -8 -9 -4 -17
10 -6 12 -19 22 -29 22 -16 -1 -16 -1 1 -11 12 -7 15 -17 11 -33 -4 -16 0 -25
11 -30 10 -3 15 -12 11 -21 -3 -8 -1 -17 4 -20 6 -4 10 -14 10 -23 -1 -11 -6
-8 -16 11 -8 15 -13 31 -10 36 3 4 -6 6 -21 3 -22 -4 -24 -7 -12 -16 8 -6 14
-23 13 -38 -2 -16 1 -28 7 -28 5 0 9 -5 9 -11 0 -7 -10 -9 -26 -5 -22 6 -24 4
-15 -12 10 -20 42 -49 48 -44 14 10 23 -1 12 -15 -12 -15 -12 -16 5 -10 16 6
17 5 6 -8 -8 -10 -22 -13 -42 -10 -19 4 -27 2 -23 -5 5 -8 -10 -15 -17 -8 -2
2 -14 -5 -28 -15 -32 -22 -80 -23 -80 -1 0 10 -6 14 -14 11 -16 -7 -54 31 -53
54 1 22 68 23 74 0 6 -22 38 -24 55 -3 11 13 11 15 -2 10 -16 -6 -43 16 -33
26 4 3 1 6 -5 6 -6 0 -9 8 -6 18 2 9 -1 7 -7 -5 -17 -33 -36 -27 -30 10 0 4
-3 7 -9 7 -5 0 -10 -10 -10 -23 0 -18 -5 -23 -22 -22 -18 1 -24 9 -25 31 -5
60 -2 109 8 112 6 3 5 10 -2 19 -10 12 -10 16 2 24 8 5 10 9 5 9 -5 0 -3 6 3
13 6 8 8 17 4 20 -3 4 -1 7 5 7 7 0 13 -10 13 -22 1 -19 2 -20 6 -5 4 14 12
18 29 14 27 -5 31 5 9 23 -11 9 -15 9 -15 1 0 -7 -4 -9 -10 -6 -19 12 -10 23
16 20 20 -2 24 1 18 14 -4 9 -7 28 -7 44 0 31 -13 36 -22 8 -3 -11 -13 -22
-22 -25 -26 -10 -12 94 16 112 26 17 27 31 4 48 -16 12 -16 13 -2 14 9 0 24 9
34 20 21 24 25 25 25 6z m3769 -355 c12 -37 21 -73 21 -82 0 -20 40 -142 51
-153 5 -6 9 -16 9 -23 0 -18 86 -149 113 -170 12 -10 29 -38 37 -63 7 -25 22
-57 33 -72 21 -31 6 -38 -27 -13 -11 8 -28 15 -38 15 -10 0 -29 6 -41 14 -27
18 -262 106 -283 106 -8 0 -34 18 -58 40 -62 58 -86 54 -132 -17 -33 -51 -109
-147 -154 -193 -8 -9 -24 -29 -35 -44 -11 -16 -26 -34 -33 -40 -7 -6 -48 -46
-91 -88 -79 -77 -111 -95 -111 -60 0 14 -2 15 -10 2 -5 -9 -5 -17 1 -21 6 -3
4 -11 -6 -19 -8 -7 -15 -9 -15 -5 0 4 -7 2 -16 -6 -12 -10 -17 -10 -23 0 -6
10 -10 9 -14 -3 -7 -18 -53 -22 -59 -5 -5 15 -118 21 -118 7 0 -17 -72 0 -136
32 -49 24 -79 31 -151 36 -59 5 -102 3 -123 -5 -39 -13 -43 -11 -35 22 9 35
185 210 301 299 16 12 31 25 34 28 3 3 25 21 50 41 25 20 67 58 94 83 27 26
55 45 61 42 7 -2 18 1 24 7 8 8 14 8 23 -1 14 -14 32 -16 24 -3 -3 5 12 9 34
9 32 1 38 -2 33 -15 -5 -12 -2 -15 10 -10 22 8 22 -2 0 -19 -17 -12 -17 -13 2
-8 27 6 50 -39 29 -57 -8 -6 -14 -18 -14 -27 0 -9 -10 -27 -22 -41 l-23 -26
28 24 c15 14 27 30 27 37 0 7 7 17 16 22 11 6 15 17 11 31 -3 14 1 24 13 31
10 5 17 18 15 27 -2 10 -4 22 -4 26 -1 5 -5 5 -11 2 -5 -3 -10 1 -10 10 0 12
5 15 16 11 10 -4 25 1 37 11 19 17 19 17 14 -2 -7 -22 1 -39 21 -43 8 -1 12 9
11 30 -1 24 -3 27 -6 11 -4 -21 -23 -33 -23 -15 0 20 29 43 80 61 99 37 333
224 370 297 8 16 23 38 32 48 10 11 20 28 24 38 4 15 13 9 54 -34 36 -38 53
-68 69 -117z m-5074 -160 c-1 -9 -10 -15 -20 -13 -10 2 -14 -1 -10 -7 3 -6 1
-11 -5 -11 -7 0 -9 8 -5 20 7 21 -10 28 -18 8 -3 -8 -6 -6 -6 5 -1 19 -41 68
-41 49 0 -6 5 -14 10 -17 6 -3 10 -14 10 -23 -1 -15 -2 -15 -15 2 -12 16 -19
18 -40 8 -28 -13 -32 -34 -10 -52 8 -7 15 -18 14 -24 -6 -53 14 -60 53 -16 16
18 21 30 13 30 -7 0 -15 7 -19 15 -7 20 3 19 25 -1 14 -13 16 -21 8 -35 -5
-11 -7 -25 -3 -31 4 -7 3 -8 -4 -4 -20 12 -13 -6 9 -25 16 -14 26 -16 46 -8
33 12 43 4 38 -32 -3 -24 -1 -29 12 -25 10 4 13 2 10 -7 -5 -13 27 -60 35 -51
3 2 4 -7 3 -21 -2 -16 2 -25 11 -25 7 0 16 -11 20 -24 3 -13 18 -36 34 -51 16
-15 26 -34 23 -41 -3 -8 -1 -14 4 -14 5 0 10 -10 10 -22 1 -13 7 -24 12 -26 6
-2 13 -20 17 -40 4 -20 15 -45 26 -56 10 -11 16 -26 13 -34 -2 -7 -1 -10 4 -7
12 7 43 -37 33 -46 -4 -4 -24 -10 -45 -13 -28 -5 -39 -2 -43 9 -4 8 -12 15
-20 15 -8 0 -11 -6 -7 -16 4 -12 0 -14 -21 -8 -17 4 -26 2 -26 -6 0 -6 6 -10
12 -8 16 6 37 -14 31 -29 -8 -21 -53 7 -53 33 0 32 -28 63 -51 57 -15 -4 -18
-12 -13 -37 3 -17 9 -32 15 -34 5 -2 9 -9 9 -15 0 -5 -3 -7 -7 -4 -3 4 -12 2
-19 -4 -10 -8 -11 -5 -7 12 4 15 3 20 -5 15 -7 -4 -12 -1 -12 10 0 14 -3 14
-16 4 -8 -8 -14 -9 -13 -4 3 19 -1 25 -13 17 -18 -11 -41 -10 -54 2 -9 7 -9
12 -1 17 7 4 2 6 -10 5 -19 -1 -20 -4 -10 -22 6 -11 10 -23 9 -27 -3 -11 27
-18 33 -8 4 6 14 10 23 10 16 -1 16 -1 1 -10 -9 -5 -20 -22 -24 -37 -5 -21 -1
-31 17 -46 l23 -19 -29 17 c-21 13 -31 14 -34 7 -6 -19 -18 -14 -19 8 -1 13 2
18 10 13 7 -4 5 2 -3 12 -14 17 -15 17 -18 -8 -2 -19 -7 -24 -19 -20 -11 4
-14 2 -9 -5 4 -7 2 -12 -4 -12 -7 0 -10 6 -7 13 13 35 -26 162 -85 271 -10 19
2 56 30 85 7 7 10 16 6 20 -4 3 -9 0 -11 -6 -3 -7 -9 -13 -14 -13 -16 0 -10
24 16 62 34 50 32 58 -12 51 -42 -6 -66 -23 -45 -30 17 -6 15 -23 -3 -23 -8 0
-14 -3 -14 -7 1 -5 1 -21 0 -37 -1 -24 -3 -27 -16 -16 -13 11 -15 9 -13 -19 1
-17 6 -31 10 -31 4 0 8 -6 8 -14 0 -7 11 -38 24 -67 12 -30 21 -60 19 -67 -3
-7 1 -10 11 -6 15 6 22 -10 17 -38 0 -5 5 -8 13 -8 8 0 16 -7 20 -15 4 -10 -1
-15 -14 -15 -11 0 -20 -7 -20 -15 0 -8 5 -15 10 -15 6 0 10 5 10 10 0 6 5 10
10 10 16 0 12 -21 -7 -37 -17 -13 -16 -14 5 -9 13 2 21 2 18 -1 -3 -4 0 -13 7
-21 10 -13 8 -14 -12 -7 -16 5 -21 4 -17 -4 5 -7 1 -9 -8 -5 -9 3 -16 2 -16
-4 0 -6 6 -13 13 -15 8 -4 7 -6 -3 -6 -17 -1 -80 61 -80 79 0 6 -4 9 -9 6 -10
-7 -34 19 -37 39 -5 31 -48 171 -56 179 -13 15 -10 26 8 26 8 0 13 4 9 10 -3
5 -12 7 -19 4 -9 -4 -16 6 -20 30 -4 20 -11 36 -16 36 -17 0 -19 -35 -6 -75 8
-22 10 -42 5 -45 -4 -3 -2 -25 7 -48 8 -24 12 -48 9 -53 -4 -5 -1 -9 4 -9 6 0
11 -8 10 -17 0 -11 -3 -13 -6 -5 -2 6 -9 10 -14 6 -5 -3 -9 5 -10 18 0 18 -2
20 -7 6 -10 -24 -28 -9 -35 27 -3 20 0 33 11 41 10 7 13 18 8 30 -7 18 -8 18
-17 1 -6 -9 -15 -15 -21 -11 -6 4 -5 9 3 15 11 6 11 11 1 21 -6 6 -13 8 -13 2
-9 -71 -8 -79 6 -87 19 -10 20 -27 1 -27 -27 0 -34 26 -40 133 -5 107 -4 108
22 138 17 19 45 34 77 43 57 14 62 25 64 121 1 60 15 93 51 123 28 23 155 97
163 94 4 -1 6 1 5 6 -2 4 6 19 17 33 l20 26 51 -44 c30 -26 51 -52 49 -62z
m4954 -329 c69 -16 72 -18 81 -53 11 -39 34 -73 87 -130 60 -63 83 -123 78
-204 -4 -85 -21 -126 -75 -188 l-43 -48 -22 21 -23 21 5 -99 c4 -78 2 -105
-11 -130 -21 -40 -65 -74 -87 -67 -20 7 -34 -24 -30 -68 4 -38 -36 -102 -101
-163 -29 -28 -66 -77 -83 -109 -33 -64 -182 -224 -230 -248 -45 -22 -100 -29
-205 -28 -94 1 -95 2 -122 33 -19 22 -31 29 -38 22 -7 -7 -1 -23 19 -51 24
-34 37 -42 73 -47 24 -4 64 -12 91 -18 l48 -10 -7 -36 c-7 -36 -98 -151 -168
-212 -42 -37 -109 -70 -142 -70 -26 0 -27 1 -9 20 20 22 13 56 -8 43 -40 -23
-117 -92 -137 -120 -12 -18 -50 -62 -84 -97 -60 -64 -62 -65 -113 -65 -50 1
-51 2 -57 33 -7 38 -62 116 -81 116 -10 0 -5 -17 15 -57 42 -84 43 -134 5
-179 -26 -30 -33 -68 -15 -79 6 -3 10 -24 10 -45 0 -21 -4 -42 -10 -45 -5 -3
-10 -17 -10 -31 0 -17 6 -24 19 -24 26 0 34 -13 73 -110 32 -84 33 -87 30
-220 -3 -150 9 -211 61 -310 16 -30 36 -67 44 -83 8 -15 19 -60 25 -100 5 -39
21 -95 34 -124 25 -52 34 -130 21 -183 -44 -184 -43 -243 6 -350 44 -98 48
-115 32 -166 -20 -68 -54 -111 -90 -117 -70 -11 -151 -28 -170 -37 -140 -65
-200 -77 -266 -54 -24 8 -40 9 -46 3 -21 -21 -31 15 -22 81 12 81 4 129 -27
175 -13 20 -31 49 -40 66 -25 50 -28 26 -4 -41 12 -34 24 -88 27 -119 7 -70
-12 -162 -36 -183 -10 -8 -24 -24 -32 -34 -34 -45 -168 -67 -194 -31 -7 10
-37 25 -66 35 -38 12 -60 26 -74 48 l-20 30 -43 -24 c-50 -28 -96 -24 -138 11
-23 20 -26 31 -26 82 -1 41 6 75 20 105 12 25 22 60 22 78 0 20 4 31 10 27 6
-4 8 -11 5 -16 -4 -5 -1 -9 4 -9 6 0 11 9 11 20 0 11 -7 20 -15 20 -9 0 -15 6
-14 13 1 6 -1 31 -6 53 -7 39 -22 62 -80 125 l-24 27 49 6 c28 4 50 11 50 17
0 6 5 7 10 4 9 -6 15 21 11 51 -2 18 46 4 53 -14 3 -10 9 -23 12 -30 5 -11 2
-12 -15 -3 -11 7 -21 10 -21 9 1 -20 31 -83 39 -82 27 2 31 5 31 22 1 16 1 16
14 -1 12 -16 15 -13 24 30 9 46 10 47 12 13 2 -33 3 -33 10 -10 7 22 8 22 9 4
1 -11 4 -24 8 -28 4 -4 9 -19 11 -34 5 -41 23 -105 28 -100 2 3 0 26 -5 52 -7
36 -6 44 4 36 15 -12 28 -1 16 14 -5 6 -12 27 -15 46 -6 30 -3 28 20 -20 15
-30 35 -84 44 -120 10 -36 21 -63 26 -60 5 3 8 13 7 23 -2 9 1 17 5 17 4 0 14
-28 21 -62 7 -33 26 -94 42 -135 16 -40 29 -84 29 -98 0 -28 19 -45 21 -18 7
84 -45 272 -107 394 -19 36 -34 69 -34 73 0 5 -13 35 -30 67 -16 33 -27 59
-25 59 3 0 -1 10 -9 23 -7 12 -31 78 -51 147 -51 170 -80 249 -109 291 -40 59
-89 233 -90 319 -1 71 -4 82 -70 220 -70 149 -92 205 -75 195 15 -10 10 7 -8
27 -21 23 -21 114 -1 173 19 58 7 254 -20 327 -17 44 -18 55 -6 55 8 0 14 -5
14 -10 0 -5 8 -17 18 -26 11 -9 21 -23 25 -31 3 -8 6 2 6 23 1 24 -6 44 -18
56 -11 11 -17 22 -14 25 10 10 45 7 38 -4 -3 -5 1 -22 9 -37 8 -16 15 -22 16
-14 0 8 6 11 16 7 11 -4 22 1 31 14 17 24 33 26 33 4 0 -8 -4 -13 -9 -9 -17
10 -21 -11 -6 -31 11 -15 15 -16 16 -4 1 8 1 19 0 23 -2 14 26 18 60 9 25 -6
34 -14 35 -30 1 -12 -5 -22 -12 -22 -8 0 -14 10 -14 23 0 16 -3 18 -9 8 -10
-16 -2 -53 10 -45 5 3 9 0 9 -6 0 -6 -7 -10 -16 -8 -8 2 -14 7 -14 12 2 9 -19
26 -34 26 -5 0 -4 -6 2 -12 10 -12 16 -42 13 -63 -1 -5 -5 -3 -11 5 -5 8 -12
11 -17 6 -4 -4 -1 -12 8 -17 16 -8 20 -51 7 -75 -2 -5 -5 -27 -5 -49 -2 -37
-1 -38 6 -10 7 29 8 28 15 -17 5 -26 6 -55 2 -63 -3 -8 -1 -15 4 -15 13 0 31
-62 26 -98 -2 -17 1 -29 5 -26 5 3 9 -2 9 -10 0 -9 5 -16 10 -16 6 0 10 -5 10
-11 0 -6 -9 -8 -22 -4 -19 6 -21 5 -10 -6 15 -16 16 -29 1 -29 -5 0 -7 5 -4
10 3 6 2 10 -3 10 -6 0 -15 -14 -21 -30 -5 -17 -6 -28 -2 -25 13 7 42 -5 36
-16 -3 -4 -13 -6 -23 -3 -14 5 -15 4 -2 -5 8 -6 24 -8 34 -5 15 5 18 3 13 -11
-5 -10 -3 -15 5 -13 14 5 20 38 7 38 -5 0 -9 10 -9 23 1 17 5 13 20 -18 13
-29 15 -42 7 -47 -9 -6 -8 -8 1 -8 7 0 10 -4 7 -10 -3 -5 -1 -10 5 -10 8 0 8
-6 0 -20 -8 -15 -8 -20 1 -18 7 2 25 -19 40 -47 14 -27 36 -68 48 -90 22 -41
28 -30 11 21 -5 16 -11 51 -14 78 -2 27 -10 52 -16 56 -7 4 -9 13 -6 19 15 23
24 9 35 -53 6 -35 18 -82 25 -104 8 -22 12 -50 9 -61 -4 -16 -2 -20 10 -16 9
4 13 14 9 27 -3 15 -1 19 7 14 6 -4 9 -12 6 -17 -4 -5 0 -9 7 -9 8 0 6 -5 -5
-11 -17 -10 -17 -12 3 -29 28 -24 16 -48 -34 -65 -40 -14 -39 -15 -51 40 -6
25 -9 28 -18 15 -16 -20 -38 -19 -59 3 -34 33 -52 12 -23 -27 8 -11 15 -29 15
-40 0 -12 7 -34 15 -50 17 -32 20 -49 5 -26 -8 13 -10 12 -10 -2 0 -10 5 -18
11 -18 6 0 8 -9 4 -20 -5 -15 -3 -18 8 -14 16 6 27 -33 33 -119 2 -33 -1 -45
-8 -41 -7 4 -8 2 -4 -5 4 -6 11 -9 15 -6 16 9 21 -69 6 -85 -13 -13 -15 -12
-15 3 0 10 -5 14 -15 11 -8 -4 -15 -14 -15 -23 0 -13 2 -13 9 -2 6 9 11 10 15
3 4 -6 13 -9 20 -6 8 3 17 1 21 -5 3 -6 1 -11 -4 -11 -14 0 -14 -36 -1 -61 6
-11 7 -19 1 -19 -5 0 -11 7 -15 15 -3 8 -9 15 -14 15 -5 0 1 -20 12 -44 13
-29 23 -40 28 -33 4 7 3 14 -2 15 -16 6 -11 22 7 22 9 0 13 -3 10 -6 -3 -4 -2
-15 3 -25 8 -13 6 -20 -6 -27 -11 -6 -13 -11 -5 -16 6 -4 11 -22 12 -39 l1
-32 10 28 10 28 18 -33 c16 -29 16 -34 4 -45 -9 -6 -11 -14 -6 -17 5 -3 8 -16
7 -28 -1 -13 0 -15 2 -5 5 21 6 21 44 1 25 -13 28 -18 18 -30 -7 -8 -8 -14 -3
-13 18 3 35 -1 31 -8 -3 -5 0 -19 5 -33 7 -19 11 -22 18 -10 7 11 14 2 30 -35
12 -28 26 -70 33 -95 18 -74 30 -72 23 5 -4 39 -8 78 -9 88 -1 9 -4 17 -8 17
-4 0 -6 11 -5 24 0 13 5 22 9 19 5 -3 6 -11 3 -19 -3 -8 -1 -14 5 -14 7 0 8
12 4 32 -9 42 -13 45 -28 25 -11 -16 -12 -15 -12 8 0 16 5 23 13 20 6 -2 12 0
12 5 0 6 -9 10 -21 10 -11 0 -18 4 -14 9 3 5 -3 12 -12 15 -22 7 -45 53 -31
62 5 3 7 17 4 30 -4 13 -2 24 3 24 5 0 11 -12 13 -27 2 -14 9 -28 16 -31 11
-3 12 0 3 17 -9 17 -9 21 2 21 8 0 17 9 20 21 5 20 5 20 -14 3 -18 -16 -19
-16 -13 -1 5 14 2 16 -12 10 -11 -3 -29 -13 -41 -21 -21 -13 -23 -13 -23 7 0
14 5 19 15 15 8 -4 15 -1 15 6 0 6 5 8 10 5 14 -9 13 8 -2 23 -9 9 -9 12 0 12
6 0 15 -7 20 -16 8 -14 10 -13 15 5 3 13 0 21 -8 21 -7 0 -16 12 -20 27 -4 17
-9 22 -14 15 -4 -8 -10 -5 -19 8 -10 16 -9 18 3 14 20 -8 20 20 0 40 -13 13
-13 15 6 21 21 7 22 26 1 33 -7 2 -10 -2 -6 -12 8 -20 -3 -21 -22 -1 -14 13
-14 15 1 15 13 0 15 5 9 23 -5 12 -8 32 -7 45 0 12 -3 22 -8 22 -5 0 -9 7 -9
16 0 8 -4 13 -9 9 -5 -3 -12 -1 -15 4 -4 5 -2 12 4 16 6 4 8 11 4 16 -3 5 -10
6 -16 3 -8 -5 -9 -1 -5 10 5 14 3 17 -8 12 -10 -4 -15 1 -15 14 0 11 -6 20
-14 20 -15 0 -51 48 -42 57 3 3 12 -1 20 -10 8 -8 12 -17 9 -21 -4 -3 -1 -6 6
-6 6 0 11 8 9 18 -2 11 3 17 15 16 19 -2 21 4 7 26 -5 8 -10 10 -10 3 0 -6 -9
-9 -20 -6 -16 4 -18 8 -9 19 6 8 17 14 23 13 29 -4 39 3 18 12 -13 5 -29 6
-34 3 -6 -4 -9 -1 -6 7 3 8 9 14 14 14 25 2 53 18 56 33 2 12 6 13 11 5 4 -6
0 -18 -8 -26 -20 -21 -19 -30 3 -18 9 5 22 10 27 11 6 1 9 8 7 17 -3 11 1 14
13 10 23 -9 39 34 18 50 -8 6 -12 17 -8 24 5 7 -2 19 -16 31 l-24 19 28 -7
c27 -6 28 -5 16 14 -10 15 -16 18 -21 9 -5 -8 -8 -7 -8 6 0 9 -6 17 -14 17 -8
0 -19 14 -25 31 -14 40 -14 39 2 33 11 -4 13 10 12 62 0 41 -5 69 -12 71 -9 3
-9 11 -1 29 12 26 31 34 22 9 -4 -8 -1 -15 5 -15 6 0 11 3 11 6 0 15 -34 105
-41 110 -5 3 -9 10 -9 15 0 16 26 -14 34 -38 4 -12 14 -27 23 -35 14 -11 15
-10 8 12 -4 14 -14 34 -21 45 -8 11 -14 24 -14 30 0 5 5 2 11 -8 6 -9 14 -15
19 -12 5 3 11 -4 15 -15 3 -11 11 -20 16 -20 13 0 12 4 -12 44 -11 19 -18 40
-14 45 7 12 -4 61 -15 61 -4 0 -14 -15 -22 -32 -8 -18 -13 -28 -12 -22 1 5 -9
21 -23 34 -13 12 -22 29 -19 37 3 8 1 11 -4 8 -6 -3 -10 -2 -10 3 0 6 -8 8
-19 5 -10 -3 -22 0 -25 6 -4 6 0 11 8 11 22 0 20 9 -6 32 l-23 20 30 -8 c17
-4 32 -10 35 -13 3 -3 11 -6 18 -7 27 -2 32 -5 32 -16 0 -9 19 -13 59 -14 49
-1 65 -6 97 -32 43 -34 203 -100 183 -75 -7 8 -34 25 -61 39 -26 13 -55 35
-63 48 -9 13 -27 27 -39 30 -13 3 -31 18 -41 32 -9 15 -12 23 -5 19 7 -4 4 4
-5 19 -9 14 -21 23 -26 20 -5 -3 -9 0 -9 5 0 6 -6 11 -12 11 -16 0 -61 107
-52 122 4 7 9 6 14 -2 5 -8 15 -10 26 -5 11 5 23 7 27 6 5 -1 -5 18 -22 41
-75 105 -75 105 -53 81 11 -13 29 -23 40 -23 11 0 39 -7 62 -15 99 -35 107 -9
13 36 -142 68 -238 163 -283 280 -24 66 -25 88 -3 134 20 42 17 43 141 -33 51
-31 108 -65 127 -75 19 -9 35 -21 35 -26 0 -11 -38 -2 -46 10 -7 11 -64 12
-64 1 0 -12 98 -59 139 -67 18 -4 52 -16 75 -26 22 -10 51 -19 64 -19 13 0 22
-6 22 -15 0 -39 37 -4 46 44 5 24 2 37 -12 51 -11 10 -32 35 -49 56 -16 20
-37 43 -47 52 -9 8 -14 21 -11 29 3 9 0 11 -10 8 -17 -7 -85 51 -73 62 4 4 11
1 17 -7 7 -13 10 -13 18 -1 5 7 14 10 21 6 8 -5 8 -1 -1 13 -14 22 -29 24 -41
7 -5 -6 -8 -3 -8 6 0 31 -38 59 -73 54 -29 -4 -29 -4 6 6 22 7 37 17 38 27 1
10 2 22 4 27 1 6 3 15 4 20 1 6 6 3 11 -5 6 -10 10 -11 10 -2 0 6 11 12 25 12
18 0 26 -7 31 -25 3 -14 12 -25 20 -25 18 0 76 -55 67 -63 -3 -4 7 -7 22 -7
16 0 39 -10 52 -22 13 -12 23 -16 23 -10 0 7 -5 12 -11 12 -5 0 -7 5 -3 12 4
7 3 8 -4 4 -8 -5 -12 1 -12 16 0 18 2 20 10 8 9 -13 10 -13 10 0 1 12 3 11 11
-2 5 -10 17 -18 25 -18 9 0 12 5 8 13 -4 6 4 2 17 -10 13 -11 44 -26 67 -33
46 -12 122 -54 184 -102 25 -20 35 -34 32 -46 -5 -14 -4 -14 4 -2 9 12 13 12
29 -1 10 -8 30 -21 45 -28 14 -8 24 -19 22 -26 -7 -16 27 -29 37 -14 4 8 12 3
24 -14 14 -23 16 -41 10 -124 -4 -54 -16 -122 -26 -152 -10 -30 -16 -57 -14
-60 12 -11 58 53 76 104 21 59 28 258 10 270 -11 6 -71 93 -71 101 0 7 -41 47
-65 64 -12 9 -9 2 8 -16 27 -30 36 -51 17 -39 -5 3 -10 1 -10 -4 0 -6 9 -11
20 -11 21 0 27 -15 10 -25 -14 -8 -51 18 -45 32 2 7 0 13 -6 13 -6 0 -9 7 -5
15 3 8 1 15 -4 15 -5 0 -10 -10 -12 -22 -3 -23 -3 -23 -27 5 -14 15 -29 27
-34 27 -6 0 -40 17 -76 38 -36 21 -85 44 -108 51 -24 8 -43 17 -43 21 0 4 -9
10 -21 13 -12 3 -18 10 -14 16 4 7 0 8 -11 4 -14 -5 -16 -2 -11 16 5 19 3 20
-9 10 -18 -15 -36 0 -62 52 -19 37 -52 53 -47 22 1 -10 -2 -24 -8 -30 -7 -9
-5 -13 7 -13 9 0 16 -6 16 -14 0 -7 7 -19 15 -26 8 -7 15 -22 15 -33 0 -18 -3
-16 -24 11 -19 27 -25 30 -35 18 -8 -9 -8 -15 -2 -18 6 -2 7 -9 2 -16 -6 -10
-17 -5 -46 22 -33 32 -35 36 -16 36 11 0 21 -4 21 -10 0 -5 7 -10 16 -10 14 0
14 3 4 15 -8 10 -9 15 -2 15 11 0 14 70 3 70 -3 0 -17 3 -30 7 -17 4 -22 3
-17 -6 4 -6 13 -9 19 -5 7 3 3 -1 -7 -10 -10 -8 -23 -13 -27 -10 -12 7 -11 42
1 46 7 2 7 14 -1 36 -6 17 -15 30 -19 27 -5 -3 -11 1 -13 7 -4 10 -8 10 -15
-1 -7 -9 -20 -12 -39 -8 -22 4 -30 2 -30 -8 0 -8 4 -12 9 -9 4 3 8 -4 8 -14 0
-11 7 -25 15 -32 8 -7 15 -17 15 -22 0 -6 -7 -5 -15 2 -10 9 -15 9 -15 1 0 -6
-5 -10 -11 -9 -6 2 -14 -3 -17 -11 -3 -10 2 -12 21 -7 17 4 27 1 31 -9 6 -16
-9 -29 -24 -20 -5 3 -10 1 -10 -5 0 -6 -9 -2 -21 9 -12 11 -18 24 -15 30 4 6
-4 13 -19 17 -28 7 -30 15 -14 47 9 20 9 20 -4 5 -19 -24 -24 -23 -29 7 -4 20
-3 23 8 14 11 -9 14 -8 14 4 0 8 -7 20 -15 27 -12 10 -16 8 -25 -14 -13 -36
-33 -34 -28 3 4 25 1 29 -16 28 -12 -1 -27 -7 -34 -14 -7 -7 -22 -13 -32 -13
-17 0 -17 2 -4 30 29 57 158 145 274 187 48 18 81 34 109 55 13 10 32 18 42
18 9 0 19 3 21 8 2 4 17 17 35 29 28 20 33 21 41 7 4 -8 24 -17 43 -19 22 -3
29 -1 20 4 -16 10 -8 41 11 40 10 0 10 -2 1 -6 -18 -7 -16 -23 2 -23 8 0 15
-5 15 -11 0 -8 5 -7 16 2 11 9 12 15 5 17 -9 3 -9 8 0 18 9 11 9 18 1 26 -9 9
-12 9 -12 -1 0 -7 -4 -10 -8 -7 -11 6 -64 -29 -56 -37 3 -3 -3 -3 -15 0 -12 3
-21 8 -21 12 0 3 23 28 50 55 28 27 50 53 50 58 0 4 6 8 13 8 7 0 19 20 26 45
9 32 18 45 30 44 9 -1 33 5 53 14 46 21 155 25 197 8 36 -15 36 -16 15 -56
-32 -57 -74 -248 -70 -313 2 -23 -1 -42 -6 -42 -5 0 -2 -7 7 -16 9 -9 14 -23
11 -31 -8 -19 12 -110 34 -158 10 -23 21 -63 25 -90 4 -28 16 -79 27 -114 17
-53 22 -61 31 -46 6 12 6 39 -3 84 -7 36 -13 80 -14 96 0 17 -5 33 -11 37 -5
4 -10 25 -10 47 0 22 -3 37 -7 35 -13 -8 -19 82 -15 224 4 112 10 157 27 210
13 37 24 73 26 80 3 12 58 11 70 0 2 -3 -7 -40 -21 -84 -27 -85 -33 -192 -14
-241 5 -15 21 -39 34 -53 13 -14 40 -58 61 -99 21 -41 39 -70 41 -64 6 17 -48
163 -74 203 -19 28 -23 48 -23 106 0 40 7 94 14 120 8 27 18 62 21 78 5 22 10
27 25 23 11 -3 20 -2 20 2 0 4 18 7 40 7 22 0 40 -3 40 -8 0 -4 10 -8 23 -8
12 0 29 0 37 0 22 -1 54 4 60 10 11 11 70 28 70 20 0 -4 10 -7 23 -6 16 1 23
-5 25 -21 2 -13 9 -23 15 -23 7 0 6 -4 -3 -10 -9 -6 -10 -10 -3 -10 16 0 28
21 16 29 -11 7 -11 22 1 39 5 8 4 18 -3 25 -17 17 -13 26 7 20 10 -2 19 -10
20 -16 6 -75 76 -226 135 -293 29 -33 46 -44 68 -44 16 0 29 -4 29 -10 0 -5 6
-7 13 -4 7 2 34 -9 60 -26 37 -23 45 -26 38 -11 -13 24 -77 79 -107 93 -13 6
-24 15 -24 20 0 4 -7 8 -15 8 -19 0 -65 51 -65 72 0 10 -4 18 -9 18 -8 0 -18
20 -49 99 -4 10 -1 13 9 9 8 -3 25 0 38 6 21 12 22 14 7 29 -9 8 -16 22 -16
29 0 10 2 10 9 -1 7 -11 11 -9 21 8 6 12 13 32 15 43 6 27 15 36 15 15 0 -9 7
-17 15 -17 8 0 15 -7 15 -15 0 -8 9 -15 19 -15 19 0 101 -83 101 -102 0 -5 5
-6 11 -2 6 3 31 -13 55 -37 24 -24 44 -37 44 -30 0 15 -119 181 -129 181 -4 0
-13 17 -19 37 l-11 37 25 -27 c14 -15 29 -25 35 -22 5 4 9 2 9 -3 0 -5 13 -9
30 -8 16 1 30 3 30 6 -1 11 -39 50 -50 50 -6 0 -10 6 -9 13 2 12 -10 65 -19
81 -2 4 -8 2 -13 -5 -7 -11 -9 -11 -9 1 0 12 -2 12 -9 2 -6 -10 -12 -5 -21 18
-16 38 -2 54 43 46 31 -6 34 0 12 24 -14 15 -14 19 -1 29 21 18 87 -27 127
-86 18 -26 34 -50 36 -53 2 -2 8 2 13 9 5 10 -4 31 -31 67 -21 29 -39 58 -39
63 0 5 -9 13 -21 16 -11 4 -18 12 -16 18 6 16 -62 14 -92 -2 -31 -17 -37 -7
-12 18 12 12 21 25 21 30 0 5 21 30 46 56 l45 47 23 -21 c13 -12 55 -29 95
-39z m-3323 -92 c-2 -16 1 -27 5 -24 5 3 9 0 9 -5 0 -6 -6 -11 -12 -11 -10 0
-9 -3 1 -9 7 -5 10 -14 6 -20 -5 -9 -11 -7 -21 6 -12 16 -13 14 -9 -21 3 -21
8 -42 11 -47 3 -5 3 -9 -1 -9 -3 0 -10 10 -14 23 -9 21 -9 21 -17 3 -5 -13 -3
-21 4 -24 17 -5 15 -22 -3 -22 -8 0 -15 -5 -15 -11 0 -5 5 -7 11 -3 8 5 8 1 0
-14 -13 -25 -14 -32 -2 -32 5 0 13 9 16 21 4 11 9 18 12 15 3 -3 -2 -24 -11
-46 -9 -23 -13 -46 -10 -52 5 -7 1 -9 -9 -5 -10 4 -17 1 -17 -5 0 -6 -7 -20
-17 -30 -15 -17 -15 -18 0 -18 10 0 17 -4 17 -10 0 -5 -4 -10 -9 -10 -5 0 -11
-7 -14 -14 -4 -10 -1 -13 9 -9 17 6 18 1 1 -40 -8 -18 -12 -37 -10 -43 5 -14
-34 -26 -41 -13 -2 5 -3 4 -2 -3 2 -7 10 -12 19 -10 13 2 15 -4 10 -33 -4 -28
-2 -35 11 -35 9 0 16 -7 16 -16 0 -8 -5 -12 -11 -8 -7 4 -9 0 -5 -14 5 -14 -1
-28 -21 -49 -16 -15 -24 -25 -19 -20 16 11 26 8 26 -8 0 -8 -5 -15 -12 -15 -6
0 -9 -3 -6 -6 3 -3 0 -31 -8 -62 -20 -81 -24 -111 -15 -116 4 -3 13 6 19 19 7
14 15 25 19 25 5 0 8 16 9 35 1 44 10 54 29 29 21 -27 20 -50 -1 -29 -9 9 -19
13 -22 10 -4 -3 0 -10 8 -15 8 -6 11 -10 5 -10 -5 0 -3 -4 5 -10 9 -6 19 -5
29 3 12 10 13 8 6 -12 -6 -20 -4 -23 9 -18 10 4 14 3 11 -3 -3 -5 -20 -7 -38
-4 -26 4 -29 3 -14 -6 9 -6 17 -18 17 -25 0 -8 8 -15 18 -15 14 0 15 2 2 10
-8 5 -12 11 -9 14 3 3 16 -6 30 -21 17 -19 19 -24 7 -20 -9 3 -18 1 -20 -5 -3
-8 -10 -7 -26 1 -12 6 -22 8 -22 3 0 -5 11 -14 25 -20 15 -7 25 -8 25 -2 0 6
7 10 15 10 18 0 18 1 4 -39 -6 -17 -17 -31 -25 -31 -8 0 -14 -5 -14 -11 0 -5
5 -7 11 -4 6 4 5 -2 -3 -14 -7 -12 -16 -21 -20 -21 -5 0 -8 -8 -8 -18 0 -11
-8 -34 -17 -52 -14 -29 -17 -31 -23 -15 -6 18 -7 18 -14 0 -4 -11 -2 -22 6
-27 8 -5 9 -8 2 -8 -18 0 -37 27 -24 35 5 3 10 11 10 17 0 6 -6 6 -15 -2 -13
-10 -19 -10 -35 5 -11 10 -20 24 -20 32 0 7 -4 13 -9 13 -5 0 -12 9 -16 20 -3
10 -23 39 -43 64 -21 25 -53 75 -71 111 -30 58 -51 87 -51 70 0 -3 11 -27 24
-53 13 -26 31 -69 39 -97 24 -77 70 -182 90 -205 9 -11 17 -22 17 -25 0 -13
91 -189 101 -195 6 -5 25 -4 42 1 29 8 29 8 12 -11 -22 -24 -53 -26 -83 -4
-18 12 -29 13 -52 6 -23 -9 -38 -6 -87 18 -90 43 -149 115 -245 298 -25 48
-33 50 -88 22 -41 -21 -161 -30 -130 -10 8 5 26 10 40 10 29 1 68 21 69 35 1
6 22 10 49 10 45 0 48 -2 67 -41 11 -22 29 -53 41 -70 11 -16 37 -58 57 -94
38 -68 93 -121 152 -145 40 -17 81 -19 90 -5 7 12 -24 111 -38 121 -17 13 -90
158 -122 244 -12 33 -32 85 -43 115 -11 30 -23 71 -26 90 -4 25 -15 40 -36 52
l-31 17 17 38 c9 21 17 43 19 48 2 6 6 19 10 30 4 11 9 34 11 50 2 17 11 35
20 42 8 6 21 35 29 65 22 88 79 241 92 245 7 3 4 -15 -8 -48 -15 -38 -17 -55
-9 -63 8 -8 9 -6 5 7 -4 10 -2 17 4 17 6 0 11 9 11 20 0 10 14 33 30 50 17 17
30 37 30 45 0 7 5 17 10 20 7 4 9 -3 5 -22 -5 -22 -4 -25 4 -13 25 34 -32
-162 -135 -467 -36 -108 -39 -123 -26 -123 18 0 82 163 201 513 23 69 29 79
54 84 22 5 25 8 16 20 -9 10 -15 11 -23 3 -5 -5 -14 -10 -20 -10 -6 0 -5 5 2
12 7 7 12 20 12 29 0 10 5 19 10 21 6 2 17 21 24 43 15 44 32 56 39 28 4 -17
5 -16 11 2 11 29 29 65 32 65 2 0 2 -13 0 -30z m-436 -120 c0 -5 10 -10 21
-10 19 0 21 -4 16 -37 -5 -32 -4 -35 5 -15 12 24 34 31 25 8 -8 -20 4 -28 20
-15 9 9 13 8 13 0 0 -6 -7 -14 -15 -17 -8 -4 -12 -10 -10 -15 7 -10 -29 -130
-63 -214 -13 -33 -36 -107 -51 -164 l-26 -104 -55 -4 c-30 -2 -64 -5 -75 -6
-16 -2 -21 6 -27 48 -4 28 -5 61 -1 75 3 14 8 42 9 62 5 55 75 195 115 228 3
3 14 28 24 55 20 55 35 78 35 55 1 -9 7 -4 15 10 15 24 15 23 10 -20 l-5 -45
14 31 c24 53 30 77 16 69 -7 -4 -16 -1 -21 6 -12 19 -11 29 1 29 6 0 10 -4 10
-10z m-1702 -130 c19 -4 41 -15 50 -23 9 -8 28 -18 42 -22 14 -4 45 -28 70
-54 25 -25 61 -57 80 -71 58 -41 100 -82 100 -99 0 -13 2 -13 9 -3 6 10 14 11
27 4 11 -5 31 -15 47 -23 15 -7 27 -20 27 -29 0 -10 7 -23 15 -30 15 -13 21
-35 8 -27 -5 3 -14 -1 -20 -9 -10 -10 -7 -16 17 -30 16 -10 27 -21 24 -26 -3
-4 -1 -8 5 -8 5 0 12 8 14 18 4 16 5 16 6 -1 1 -23 -25 -33 -44 -17 -8 7 -15
8 -15 3 0 -5 -14 -10 -31 -11 -34 -3 -69 21 -69 45 0 8 -13 26 -30 40 -16 13
-30 29 -30 34 0 24 -74 122 -113 149 -23 17 -51 44 -62 60 -20 30 -75 66 -133
87 -28 11 -37 10 -59 -4 -25 -17 -25 -16 -19 4 4 12 2 24 -4 28 -19 12 11 37
34 30 12 -3 36 -10 54 -15z m20 -127 c80 -49 107 -72 138 -118 19 -27 54 -77
79 -110 24 -33 44 -64 45 -69 0 -15 -87 2 -137 27 -26 13 -60 27 -75 31 -16 3
-28 10 -28 15 0 5 -11 8 -24 7 -14 -2 -30 1 -38 6 -9 7 -8 8 6 4 14 -5 16 -3
9 6 -13 16 -13 78 -1 78 5 0 6 5 3 10 -3 6 -1 10 5 10 6 0 9 4 5 9 -3 5 -1 12
5 16 5 3 21 -6 35 -22 13 -15 25 -22 25 -15 0 7 5 10 11 6 8 -5 8 -8 0 -13 -8
-5 -7 -13 3 -26 13 -18 14 -17 12 11 0 17 -9 38 -19 48 -9 10 -17 15 -17 11 0
-3 -8 -1 -19 4 -10 6 -34 8 -53 4 -30 -4 -35 -9 -30 -26 3 -11 1 -18 -4 -14
-5 3 -10 -2 -11 -11 -1 -9 -7 -40 -14 -69 -10 -44 -9 -58 5 -93 9 -22 16 -62
16 -87 0 -49 38 -244 49 -253 4 -3 14 -31 24 -62 11 -37 35 -78 67 -116 45
-54 60 -64 150 -100 23 -9 21 -10 -25 -17 -61 -8 -131 -33 -146 -51 -6 -8 -22
-14 -35 -14 -24 0 -24 1 -18 68 4 45 2 76 -5 90 -20 37 -31 25 -31 -33 0 -59
-19 -109 -45 -119 -11 -4 -14 -2 -9 6 5 8 2 9 -9 5 -14 -5 -16 -2 -11 21 4 15
11 28 16 30 4 2 5 15 2 28 -4 15 -2 24 6 24 6 0 8 5 4 12 -5 7 -9 28 -11 46
-3 40 -23 84 -40 90 -10 3 -11 -15 -7 -72 4 -62 2 -76 -10 -76 -9 0 -12 -7 -9
-18 2 -10 -3 -31 -11 -47 -9 -17 -16 -36 -16 -43 0 -7 -8 -12 -17 -10 -10 2
-17 -3 -16 -9 2 -7 -2 -13 -8 -13 -6 0 -8 9 -4 20 7 21 -10 29 -18 8 -2 -7 -8
-9 -13 -5 -5 4 -4 11 2 15 6 4 14 16 18 27 7 18 8 19 17 3 9 -16 11 -16 29 2
26 26 25 33 -2 25 -18 -6 -20 -5 -11 5 8 9 9 19 1 36 -15 31 -32 31 -24 0 4
-15 1 -28 -6 -32 -8 -5 -9 -2 -5 9 3 9 0 23 -8 31 -11 11 -13 21 -5 40 5 14 6
26 1 26 -5 0 -12 -7 -15 -15 -5 -13 -10 -14 -27 -4 -19 10 -21 9 -16 -5 3 -8
2 -18 -2 -21 -5 -3 -12 2 -15 11 -3 9 -12 14 -20 11 -7 -3 -19 0 -25 6 -6 6
-11 7 -11 3 0 -5 -7 -3 -16 5 -13 10 -17 10 -25 -2 -7 -11 -9 -11 -9 4 0 9 -4
17 -10 17 -5 0 -7 7 -4 15 4 9 0 15 -9 15 -8 0 -17 7 -21 15 -3 8 -10 14 -15
13 -6 -2 -22 11 -36 27 -18 21 -23 24 -18 10 3 -11 10 -26 16 -32 5 -7 6 -13
3 -13 -4 0 -1 -10 5 -22 12 -22 11 -22 -7 -8 -10 8 -23 20 -27 25 -5 6 -7 3
-3 -7 3 -12 0 -18 -9 -18 -7 0 -17 9 -20 21 -4 12 -12 18 -21 15 -18 -7 -37
27 -22 42 7 7 5 10 -8 9 -10 -1 -19 4 -19 12 0 19 -21 25 -31 9 -4 -7 -4 -10
1 -6 10 9 40 -30 31 -39 -3 -4 -12 2 -20 12 -9 12 -15 15 -20 7 -4 -7 -3 -12
2 -12 5 0 12 -9 15 -20 6 -22 -7 -27 -20 -7 -8 12 -9 17 -12 37 0 6 -8 10 -17
10 -11 0 -14 -5 -9 -17 3 -10 9 -30 12 -46 6 -30 23 -47 23 -23 0 18 8 20 30
6 8 -5 11 -12 7 -17 -5 -4 -12 -1 -17 7 -7 11 -10 8 -15 -12 -4 -15 -4 -31 -1
-37 3 -5 3 -17 0 -26 -6 -14 -8 -13 -21 5 -8 12 -13 30 -10 40 3 11 -1 21 -11
25 -8 3 -12 8 -10 11 3 3 -3 28 -13 55 -11 28 -17 54 -14 59 8 13 -69 85 -107
99 -18 7 -68 30 -110 52 -43 21 -78 35 -78 30 0 -14 66 -66 116 -92 58 -30
124 -86 124 -107 0 -9 8 -36 17 -60 14 -37 14 -45 2 -53 -12 -7 -11 -9 2 -9
10 0 19 -11 21 -25 3 -13 1 -22 -3 -19 -5 3 -9 0 -9 -5 0 -6 5 -11 10 -11 6 0
10 -9 10 -20 0 -12 7 -35 16 -52 9 -18 11 -27 4 -23 -9 6 -9 2 0 -14 6 -12 15
-19 19 -16 5 2 19 -4 31 -15 13 -11 18 -20 12 -20 -6 0 -14 5 -17 10 -3 6 -10
10 -15 10 -6 0 -1 -15 10 -32 22 -37 25 -48 10 -48 -5 0 -10 6 -10 13 0 6 -9
23 -20 37 l-19 25 3 -27 c2 -15 14 -36 27 -47 13 -11 18 -20 12 -21 -7 0 -13
-7 -13 -16 0 -13 7 -15 29 -11 23 5 30 2 34 -13 4 -17 1 -19 -21 -13 -21 5
-24 3 -19 -11 4 -11 1 -16 -11 -16 -15 0 -15 -2 -2 -10 12 -8 11 -10 -7 -10
-13 0 -22 -3 -21 -7 3 -10 -25 -53 -33 -53 -3 0 -4 10 -2 23 8 40 -14 178 -32
197 -18 20 -46 16 -122 -15 -49 -20 -54 -36 -18 -59 27 -18 35 -66 11 -66 -21
0 -30 -32 -11 -42 8 -5 15 -16 15 -23 0 -18 -27 -20 -33 -2 -2 6 -12 -6 -22
-28 -10 -22 -27 -59 -38 -82 -10 -24 -23 -43 -28 -43 -5 0 -9 -4 -9 -10 0 -5
6 -10 14 -10 10 0 13 -9 11 -29 -5 -39 21 -50 37 -16 6 14 15 25 20 25 4 0 -3
-18 -18 -39 -30 -47 -54 -142 -47 -188 7 -41 19 -43 26 -4 11 53 70 173 78
159 5 -7 4 -17 -1 -22 -6 -6 -10 -16 -10 -24 0 -18 19 2 39 40 11 21 11 31 2
41 -9 12 -7 16 11 20 26 7 38 -1 19 -12 -8 -5 -9 -11 -4 -14 6 -4 16 5 23 18
7 14 19 25 27 25 7 0 13 7 13 15 0 8 -4 15 -9 15 -5 0 -8 11 -8 25 0 15 4 22
10 18 6 -4 8 0 4 10 -4 11 -1 17 7 17 21 0 27 -27 8 -35 -15 -6 -15 -8 2 -21
11 -8 14 -14 8 -14 -20 0 -13 -17 9 -23 12 -3 19 -11 17 -17 -2 -6 -8 -10 -13
-8 -6 2 -9 6 -8 11 2 4 -2 7 -8 7 -14 0 -48 -41 -49 -57 0 -7 -4 -13 -10 -13
-5 0 -10 -5 -10 -11 0 -8 5 -8 15 1 8 7 15 19 15 28 0 8 3 12 7 9 9 -10 10
-77 1 -77 -4 0 -8 -5 -8 -11 0 -5 5 -7 10 -4 14 9 12 -15 -3 -45 -21 -41 -27
-71 -20 -117 5 -40 23 -61 23 -28 0 8 4 23 9 33 5 9 14 30 20 46 11 27 12 28
26 10 8 -11 14 -23 15 -29 0 -5 -4 -4 -9 4 -11 17 -26 -7 -35 -59 -5 -31 -5
-32 6 -12 18 36 25 26 31 -44 3 -44 11 -72 22 -83 16 -15 17 -14 12 19 -3 20
-3 48 0 63 5 23 10 27 39 27 24 0 34 -5 34 -15 0 -8 -5 -15 -12 -15 -6 0 -9
-2 -6 -5 16 -16 38 14 54 72 10 37 20 61 22 54 4 -11 -8 -69 -25 -125 -3 -12
-1 -16 6 -12 6 4 11 15 11 25 0 10 7 24 15 31 8 7 13 16 10 20 -3 5 0 12 6 16
9 5 10 -1 5 -19 -13 -52 -49 -120 -59 -110 -4 3 -7 -5 -7 -19 0 -14 -11 -34
-25 -46 -14 -12 -25 -29 -25 -37 0 -18 5 -19 32 -4 22 12 22 13 2 -35 -3 -9 2
-17 14 -20 13 -5 18 -13 15 -25 -3 -11 0 -28 6 -39 9 -17 6 -26 -20 -54 -18
-18 -28 -27 -24 -19 5 9 3 12 -6 9 -8 -3 -15 -14 -17 -25 -2 -12 -16 -26 -33
-33 -16 -7 -29 -16 -29 -19 0 -9 54 -6 69 4 6 3 11 0 12 -7 0 -10 2 -10 6 0 3
9 11 7 30 -8 14 -11 29 -17 34 -14 5 3 9 0 9 -6 0 -7 7 -9 16 -6 14 5 16 1 11
-34 -3 -22 -1 -38 3 -35 5 3 10 0 12 -7 3 -7 7 -5 11 6 4 11 3 15 -4 10 -7 -4
-10 -1 -7 7 3 8 11 13 17 11 10 -2 13 4 15 37 1 8 7 16 15 19 16 5 8 -29 -16
-66 -8 -13 -12 -30 -9 -38 3 -8 1 -26 -5 -40 -5 -15 -8 -29 -5 -31 7 -7 46 21
46 33 0 15 29 39 37 31 3 -4 0 -14 -7 -22 -11 -13 -11 -16 1 -13 8 2 13 -3 11
-9 -1 -7 2 -13 7 -13 15 0 25 21 14 29 -11 8 -16 71 -5 71 4 0 9 -14 10 -31 1
-17 7 -40 13 -50 8 -15 6 -19 -6 -19 -9 0 -13 -5 -9 -11 4 -8 -1 -9 -17 -5
-13 3 -18 3 -11 0 15 -7 16 -34 1 -34 -5 0 -7 -5 -3 -11 3 -6 15 -9 25 -6 11
3 19 1 19 -4 0 -5 -14 -9 -32 -9 -43 0 -29 -10 18 -13 30 -1 40 -7 43 -22 3
-17 1 -18 -14 -5 -15 13 -19 12 -31 -5 -8 -10 -14 -26 -14 -34 0 -14 1 -14 10
-1 7 11 9 7 7 -15 -5 -40 -17 -66 -28 -59 -9 5 -10 4 -14 -32 -1 -11 -14 -47
-29 -79 -14 -32 -24 -60 -22 -62 8 -8 46 22 52 39 7 22 24 24 24 3 0 -8 5 -15
11 -15 5 0 7 5 4 10 -14 23 4 8 20 -16 9 -15 12 -24 7 -20 -6 3 -14 1 -18 -6
-5 -8 -10 -6 -15 8 -7 18 -8 18 -8 -2 -1 -20 3 -22 54 -19 30 1 55 1 55 -1 0
-2 -10 -15 -22 -30 -31 -35 -41 -64 -23 -64 9 0 12 6 8 16 -5 14 -3 14 15 3
12 -7 18 -16 14 -19 -24 -18 -35 -79 -11 -65 4 3 11 -6 15 -20 3 -14 10 -25
14 -25 15 0 21 39 12 72 -9 31 -8 33 18 33 21 0 26 -4 22 -18 -3 -10 -11 -16
-18 -13 -8 3 -14 1 -14 -4 0 -6 5 -10 11 -10 5 0 7 -5 3 -12 -4 -6 -6 -28 -6
-50 1 -21 -2 -38 -7 -38 -13 0 -10 -43 4 -53 7 -6 6 -10 -3 -14 -6 -2 -9 -10
-5 -16 4 -7 -2 -5 -12 3 -10 8 -16 10 -12 3 4 -6 3 -14 -2 -18 -6 -3 -9 -28
-7 -55 1 -28 -1 -50 -5 -50 -5 0 -8 -16 -7 -36 1 -38 20 -53 42 -35 10 9 15 8
19 -3 4 -9 -2 -17 -14 -21 -11 -4 -18 -9 -15 -12 3 -4 1 -12 -5 -20 -7 -8 -8
-13 -1 -13 5 0 10 -11 10 -25 0 -14 -5 -25 -10 -25 -5 0 -6 -5 -3 -10 11 -18
25 0 25 31 0 16 4 29 10 29 5 0 9 -4 7 -9 -1 -5 7 -17 18 -25 16 -13 17 -15 3
-10 -12 4 -18 1 -18 -10 0 -10 6 -13 15 -10 9 4 15 0 15 -9 0 -8 6 -17 14 -20
8 -3 17 -19 21 -36 7 -33 19 -45 54 -56 l24 -7 -20 35 c-12 19 -28 60 -37 90
-9 31 -19 63 -22 72 -3 8 -1 15 4 15 6 0 13 -8 16 -17 2 -10 3 21 1 69 -1 56
1 85 7 82 6 -4 8 3 3 17 -3 14 -3 19 2 12 5 -7 14 -9 23 -3 11 7 10 12 -9 27
-20 16 -22 23 -12 40 6 12 8 29 5 37 -3 9 -1 16 6 16 6 0 8 -5 4 -12 -4 -6 5
-3 19 8 26 19 35 34 19 34 -4 0 -8 9 -9 20 -1 11 3 20 9 20 7 0 6 5 -1 14 -9
11 -9 15 1 19 10 4 10 7 -1 15 -9 7 -10 12 -2 16 6 4 13 1 15 -6 3 -7 10 -30
16 -50 15 -50 35 -63 26 -17 -4 19 -8 53 -11 77 -2 23 -7 47 -11 54 -5 7 -3 8
6 3 8 -5 11 -4 7 2 -3 5 -9 32 -13 59 -3 27 -9 58 -11 69 -3 11 -7 76 -9 144
-2 68 -6 126 -8 128 -9 10 -46 -23 -46 -42 -1 -26 -26 -60 -35 -46 -3 6 -2 11
3 11 6 0 12 7 16 15 4 12 2 13 -14 3 -10 -7 -21 -20 -23 -30 -3 -10 -1 -16 4
-12 5 3 9 0 9 -6 0 -7 -7 -9 -16 -6 -9 3 -20 6 -26 6 -6 0 -4 8 4 18 20 22 30
86 12 71 -8 -7 -14 -6 -19 1 -4 7 2 14 14 17 16 4 20 12 17 33 -2 21 1 27 10
23 8 -3 14 0 14 6 0 6 11 10 25 9 18 -2 24 -7 20 -18 -5 -12 -4 -12 6 -3 10
10 9 17 -5 32 -12 13 -15 27 -11 42 4 12 3 19 -2 16 -5 -3 -15 4 -22 15 -11
18 -11 20 2 15 11 -4 16 3 19 23 2 16 1 27 -3 25 -4 -3 -9 2 -13 10 -3 8 0 15
6 15 7 0 7 4 0 13 -11 14 -11 57 1 57 4 0 14 0 22 0 9 0 15 -9 15 -22 0 -19 2
-20 10 -8 5 8 7 43 4 78 -6 65 1 102 17 102 6 0 7 -9 4 -20 -4 -11 -2 -20 4
-20 6 0 11 5 11 10 0 6 4 10 9 10 4 0 7 -12 4 -27 -3 -24 -2 -25 6 -8 8 17 10
18 10 3 1 -10 5 -18 10 -18 4 0 8 -23 8 -52 l-1 -52 -15 34 c-8 19 -14 38 -13
43 1 4 -4 7 -12 7 -9 0 -13 8 -10 23 2 12 1 15 -2 7 -4 -8 -12 -22 -18 -30 -5
-8 -7 -12 -2 -8 10 8 29 -9 39 -34 4 -13 2 -15 -10 -11 -12 5 -15 2 -10 -10 3
-9 2 -19 -3 -22 -5 -3 -8 -14 -7 -24 1 -13 7 -17 21 -13 11 3 15 7 8 10 -6 2
-12 11 -12 19 0 12 7 14 38 8 47 -9 50 -12 29 -32 -11 -11 -17 -13 -17 -5 0 7
-5 12 -12 12 -8 0 -6 -7 5 -17 13 -13 22 -15 34 -7 24 15 25 45 2 51 -13 4
-16 9 -11 17 14 17 24 78 12 71 -6 -3 -10 -1 -10 4 0 6 6 11 13 11 8 0 8 3 2
8 -6 4 -17 26 -23 49 -7 24 -21 51 -31 60 -27 27 -86 123 -86 141 0 8 -7 17
-15 19 -13 4 -13 3 0 -6 8 -5 12 -12 9 -15 -8 -9 -50 24 -44 35 4 5 -1 9 -9 9
-9 0 -16 6 -16 14 0 8 -8 12 -23 9 -17 -3 -28 2 -41 21 -10 16 -22 24 -29 20
-7 -4 -9 -4 -5 1 11 12 -11 35 -28 28 -23 -9 -16 12 9 23 12 6 16 9 8 7 -8 -2
-11 2 -7 13 3 8 6 20 6 25 0 5 9 9 20 9 11 0 20 3 20 6 0 3 -9 17 -20 31 -11
14 -20 31 -20 38 0 6 -6 12 -14 12 -8 0 -12 -6 -9 -13 3 -9 -2 -11 -16 -7 -15
4 -21 1 -21 -11 0 -9 4 -16 8 -16 5 0 17 -7 28 -15 17 -13 16 -14 -16 -3 -45
14 -59 26 -42 37 7 4 11 17 9 29 -3 23 -17 43 -17 25 0 -6 -7 -14 -16 -17 -8
-3 -13 -2 -10 3 3 5 -1 14 -9 21 -19 16 -9 37 21 43 25 4 54 -17 34 -26 -6 -3
-5 -4 2 -3 15 4 11 38 -5 48 -6 4 -15 2 -19 -5 -5 -8 -8 -4 -8 10 0 16 4 21
15 17 11 -4 19 3 26 25 7 21 16 30 25 27 9 -4 14 2 14 15 0 12 4 17 11 14 6
-4 8 -13 5 -20 -2 -7 0 -17 5 -22 6 -6 7 -23 3 -38 -7 -27 -8 -28 -15 -8 -6
15 -14 20 -28 16 -22 -5 -29 -23 -10 -23 5 0 8 -4 4 -9 -3 -5 -1 -12 5 -16 5
-3 10 -2 10 3 0 5 12 7 27 4 26 -5 26 -5 5 -13 -34 -13 -26 -19 10 -8 18 5 34
9 35 9 1 0 9 -13 18 -30 12 -23 12 -28 2 -24 -8 3 -19 -1 -25 -9 -10 -11 -6
-13 18 -12 30 2 36 -3 23 -21 -5 -5 0 0 10 10 19 20 19 20 38 -4 l20 -25 -18
35 c-10 19 -27 48 -37 63 -14 21 -16 31 -7 40 16 16 14 27 -6 28 -17 1 -17 2
0 6 9 2 17 9 17 14 0 6 -5 7 -12 3 -7 -4 -8 -3 -4 4 4 7 14 12 22 12 8 0 14 7
14 15 0 8 -3 15 -8 15 -4 0 -13 14 -20 30 -10 22 -21 30 -38 30 -14 0 -23 -4
-20 -9 4 -5 0 -11 -6 -14 -7 -2 -10 -7 -7 -11 4 -4 14 1 23 10 16 15 18 15 31
-2 11 -16 11 -20 0 -22 -7 -2 -11 -11 -8 -23 3 -10 0 -19 -6 -19 -10 0 -15 13
-13 31 1 4 -6 5 -16 3 -19 -5 -40 30 -34 57 4 19 116 83 135 76 7 -2 17 3 23
11 5 7 22 15 36 15 14 1 24 5 21 10 -2 4 0 7 5 7 6 0 41 14 79 31 68 31 68 32
38 40 -16 5 -48 8 -69 7 -23 -2 -41 2 -43 8 -2 7 4 11 14 10 11 0 18 6 18 19
0 11 6 19 13 18 6 -2 12 2 12 7 0 13 -17 13 -25 -1 -4 -6 -13 -8 -21 -5 -8 3
-14 0 -13 -7 1 -6 -2 -22 -6 -33 -7 -23 -46 -29 -77 -13 -14 8 -18 6 -18 -9 0
-15 5 -18 25 -14 34 6 32 -14 -2 -23 -15 -3 -57 -24 -93 -46 -39 -23 -67 -34
-69 -27 -2 6 -10 -3 -17 -21 -11 -27 -28 -37 -56 -32 -4 0 -3 -11 3 -26 8 -22
8 -24 -5 -14 -8 7 -20 10 -26 6 -6 -4 -6 4 2 20 7 17 8 29 2 33 -5 4 -9 19 -9
35 1 15 -3 27 -8 27 -4 0 -5 4 -2 10 3 6 -1 7 -9 4 -22 -8 -20 13 2 25 13 8
14 13 4 19 -9 6 -6 12 13 22 14 7 28 10 31 7 4 -4 -4 -11 -17 -16 -21 -8 -20
-9 14 -9 23 1 37 6 37 14 0 13 55 22 165 28 56 2 105 21 105 39 0 4 -4 6 -9 2
-5 -3 -12 -1 -16 5 -6 9 -1 11 38 14 6 1 18 7 26 14 11 11 17 10 32 -3 30 -28
79 -22 137 18 47 33 133 58 166 49 32 -9 85 46 91 94 1 13 5 27 7 30 3 2 49 6
102 7 55 1 96 6 96 12 0 6 7 2 14 -8 14 -18 14 -17 21 2 3 12 9 21 13 21 4 0
18 3 31 7 22 6 23 5 10 -18 -7 -13 -12 -27 -11 -31 1 -5 -3 -8 -9 -8 -6 0 -9
7 -6 15 4 8 2 17 -2 20 -12 7 -23 -24 -14 -38 4 -6 0 -8 -10 -4 -9 3 -19 2
-23 -4 -3 -6 -13 -8 -21 -5 -11 5 -13 1 -7 -16 6 -19 4 -21 -7 -12 -26 20 -47
23 -53 8 -3 -8 -2 -13 3 -10 5 3 27 -1 49 -8 22 -8 44 -11 48 -8 5 4 2 -1 -5
-10 -7 -10 -18 -15 -24 -11 -6 4 -7 1 -2 -7 6 -10 4 -12 -9 -7 -9 4 -14 3 -11
-2 3 -5 -3 -12 -12 -14 -14 -4 -13 -5 4 -6 12 0 24 -10 28 -21 7 -21 49 -28
60 -10 3 6 14 10 23 9 12 0 11 -3 -5 -9 -13 -5 -23 -14 -23 -19 0 -5 -11 -12
-25 -15 -43 -11 -30 -31 16 -27 9 1 19 -5 22 -14 4 -8 2 -15 -3 -15 -6 0 -10
6 -11 13 0 6 -4 3 -8 -8 -6 -14 -4 -23 7 -29 10 -6 17 -5 19 1 2 6 12 9 22 6
11 -3 21 2 24 11 9 23 30 20 24 -4 -3 -10 0 -21 5 -22 7 -3 6 -13 -2 -28 -12
-23 -12 -24 3 -11 10 7 17 10 17 5 0 -5 4 -3 9 5 8 12 12 12 26 -2 15 -16 13
-21 -7 -18 -18 3 -6 -10 17 -19 14 -5 25 -17 25 -27 -1 -17 -1 -17 -11 0 -11
18 -59 24 -59 7 0 -10 14 -14 37 -11 8 1 10 -5 6 -15 -5 -13 -2 -15 15 -9 14
4 22 2 22 -6 0 -8 3 -9 14 0 15 12 56 -4 92 -37 11 -11 30 -23 42 -26 16 -5
22 -16 23 -39 2 -48 -1 -60 -20 -77 -17 -14 -18 -45 -1 -35 4 3 13 -2 20 -10
10 -13 9 -15 -11 -15 -22 0 -21 -2 9 -17 43 -21 34 -29 -15 -12 -21 7 -40 13
-43 14 -3 0 -11 4 -19 9 -9 6 -12 5 -7 -2 10 -17 -61 -27 -79 -12 -8 7 -15 17
-15 23 0 5 8 3 18 -5 9 -8 26 -13 36 -10 16 3 14 6 -12 18 -37 15 -35 35 6 54
26 12 26 12 7 27 -11 8 -19 18 -18 23 2 5 -4 7 -12 4 -8 -4 -15 -11 -15 -18 0
-6 -16 -26 -35 -45 -41 -39 -41 -43 -15 -86 19 -30 25 -33 88 -39 37 -3 85 -8
107 -11 22 -4 67 -7 100 -7 33 -1 62 -5 65 -8 52 -70 112 -97 144 -65 14 14
17 14 35 -4 19 -19 19 -19 -18 -55 -30 -29 -39 -34 -50 -24 -11 11 -13 10 -8
-4 3 -10 1 -20 -5 -24 -7 -4 -8 -3 -4 4 4 7 2 12 -3 12 -6 0 -11 -7 -11 -15 0
-8 -7 -15 -15 -15 -8 0 -15 -4 -15 -8 0 -20 -46 -27 -133 -20 -50 3 -101 9
-112 11 -11 3 -26 6 -33 6 -7 1 -10 6 -6 13 5 7 1 9 -13 6 -12 -3 -30 3 -44
14 -24 20 -24 20 -1 15 25 -6 30 8 6 17 -25 10 -62 7 -46 -3 29 -18 -15 -19
-45 -1 -16 9 -40 21 -54 25 -13 4 -32 14 -41 22 -22 19 -143 30 -161 15 -8 -7
-22 -13 -33 -15 -10 -1 -25 -6 -32 -11 -19 -12 -139 22 -212 60 -35 18 -66 32
-68 29 -10 -10 25 -50 71 -79 104 -66 189 -80 266 -46 55 25 92 25 139 0 20
-11 78 -35 127 -54 50 -19 110 -44 135 -55 30 -13 79 -22 145 -26 95 -7 102
-6 148 19 26 14 47 23 47 19 0 -3 33 27 72 68 40 41 77 72 83 70 25 -9 91 -8
107 3 14 8 26 6 54 -9 20 -10 46 -18 59 -17 25 2 88 34 115 57 13 12 15 5 14
-58 0 -45 -5 -72 -11 -72 -6 0 -15 -3 -19 -7 -4 -5 -65 -8 -135 -8 -95 0 -140
-4 -171 -16 -53 -21 -115 -78 -135 -123 -28 -66 -62 -91 -141 -103 -60 -10
-80 -9 -124 5 -192 60 -255 68 -342 46 -70 -17 -96 -50 -160 -204 -92 -221
-95 -228 -130 -363 -19 -70 -44 -152 -56 -182 -12 -30 -24 -64 -27 -75 -3 -11
-13 -29 -23 -40 -23 -27 -96 -158 -105 -187 -4 -13 -19 -43 -34 -68 -45 -77
-52 -91 -67 -139 -27 -85 -40 -192 -32 -271 10 -99 27 -169 48 -200 10 -14 21
-36 25 -50 4 -14 20 -36 36 -50 17 -16 31 -42 38 -70 5 -25 13 -55 16 -66 7
-21 4 -22 -72 -20 -112 4 -131 16 -206 133 -26 40 -53 73 -62 73 -23 0 -18
-25 15 -78 36 -59 38 -70 8 -41 -13 11 -42 30 -65 41 -23 11 -47 26 -54 34 -6
8 -17 14 -24 14 -7 0 -40 22 -72 48 -32 27 -80 64 -108 83 -27 19 -51 37 -53
42 -2 4 -8 7 -14 7 -24 0 -98 74 -159 157 -71 98 -102 129 -139 138 -26 7 -79
43 -118 80 -12 12 -41 35 -64 51 -62 43 -255 239 -293 299 -111 172 -132 380
-66 632 12 44 17 190 8 200 -12 12 -7 210 7 285 12 65 12 83 -3 164 -19 100
-15 192 14 294 28 100 36 205 19 289 -23 121 -16 180 27 241 19 27 59 180 59
227 0 40 41 141 79 197 18 25 50 55 71 66 21 11 42 25 46 31 7 11 67 40 94 45
7 2 58 -4 111 -13 97 -16 98 -16 151 7 29 13 71 24 93 26 22 1 83 5 135 9 52
3 123 13 158 22 35 8 65 13 68 10 3 -3 -2 -20 -11 -37 -11 -21 -13 -36 -7 -42
7 -7 19 7 37 39 16 26 35 59 44 73 9 14 27 48 41 75 20 39 31 51 53 53 15 2
27 9 27 15 0 7 4 6 10 -3 6 -9 10 -10 10 -3 0 6 8 14 18 16 9 3 18 5 20 6 1 0
15 -6 30 -16z m723 -172 c18 9 19 8 7 -10 -7 -12 -16 -21 -21 -21 -4 0 -5 -5
-1 -12 5 -7 15 -2 31 18 15 19 23 24 24 14 1 -8 2 -19 4 -25 1 -5 3 -14 3 -18
1 -4 8 -2 16 5 8 7 12 16 9 21 -7 11 21 8 65 -7 44 -16 131 -69 171 -105 22
-19 23 -23 10 -36 -8 -8 -33 -17 -56 -19 -23 -3 -46 -7 -50 -8 -10 -2 -141 12
-170 19 -13 3 -23 12 -23 20 0 13 -3 13 -15 3 -9 -7 -18 -10 -22 -7 -3 4 -12
2 -19 -4 -9 -7 -17 -4 -29 13 -16 22 -17 22 -11 2 6 -19 3 -22 -22 -21 -16 1
-29 7 -29 15 0 7 5 11 11 9 7 -3 11 6 10 22 -1 14 -3 31 -3 38 -1 13 -41 5
-41 -8 0 -5 -6 -9 -14 -9 -15 0 -29 -27 -21 -40 6 -9 -25 -23 -33 -15 -3 3 0
5 7 5 8 0 11 7 7 15 -3 8 0 15 6 15 24 0 -9 21 -38 25 -16 2 -30 4 -31 4 -2 1
5 10 14 21 17 19 18 19 25 3 6 -14 7 -12 5 7 -1 17 -7 24 -19 22 -9 -1 -19 2
-22 7 -3 5 8 8 25 7 16 -1 33 2 36 8 7 11 27 -32 24 -51 -1 -7 3 -13 9 -13 5
0 10 7 10 16 0 8 5 12 11 9 18 -12 76 -17 60 -6 -21 14 3 41 36 41 14 0 21 4
18 10 -3 6 -3 15 1 22 6 9 9 9 12 0 3 -9 9 -9 23 -1z m1604 -10 c-2 -5 4 -16
15 -26 11 -10 17 -22 14 -27 -3 -5 2 -8 12 -6 15 2 18 -2 16 -24 -1 -16 2 -28
8 -28 5 0 10 -7 10 -17 0 -9 3 -13 7 -10 10 10 35 -31 27 -45 -4 -7 -3 -8 4
-4 8 5 12 -4 12 -28 0 -26 4 -36 16 -36 8 0 12 -4 9 -10 -3 -5 1 -23 10 -41
20 -37 12 -48 -18 -30 -20 13 -21 13 -9 -2 8 -9 11 -21 7 -27 -8 -12 17 -9 26
4 12 16 26 -3 21 -29 -2 -14 0 -25 7 -25 6 0 8 -7 4 -17 -4 -10 -2 -14 4 -10
13 8 26 -20 16 -36 -3 -7 -3 -9 2 -5 4 4 20 -16 34 -45 15 -29 39 -70 54 -91
15 -21 27 -49 27 -62 0 -12 5 -35 10 -49 7 -19 6 -33 -2 -48 -7 -12 -13 -24
-13 -27 -3 -21 -31 -80 -37 -80 -4 0 -8 -7 -8 -15 0 -8 5 -15 11 -15 8 0 8 -4
1 -13 -6 -7 -9 -29 -8 -50 2 -20 0 -37 -4 -37 -5 0 -6 -10 -3 -22 4 -22 3 -22
-11 2 -9 16 -11 29 -5 36 7 8 6 13 -2 16 -6 2 -12 16 -12 31 -1 15 -6 27 -11
27 -4 0 -6 7 -2 15 3 8 1 15 -5 15 -6 0 -8 7 -5 17 4 9 2 20 -5 23 -6 4 -19
57 -29 117 -19 118 -59 263 -72 263 -4 0 -8 7 -8 15 0 8 -9 30 -20 50 -11 20
-20 44 -20 55 0 11 -4 20 -8 20 -11 0 -48 68 -56 103 -4 15 -23 43 -42 61 -28
26 -34 39 -29 55 3 12 11 18 17 15 7 -4 8 -2 4 5 -5 7 -5 24 -1 39 6 26 7 26
21 8 7 -11 17 -17 20 -13 4 3 -1 13 -10 22 -17 17 -21 37 -10 48 9 9 26 -2 19
-12z m920 -495 c13 -13 15 -18 15 -47 0 -19 4 -21 32 -15 30 6 31 5 14 -13
-16 -18 -16 -18 9 -18 15 0 32 -6 38 -13 9 -10 8 -12 -5 -7 -11 4 -18 1 -18
-6 0 -7 -8 -17 -17 -23 -10 -6 -29 -32 -42 -59 -29 -59 -25 -124 14 -203 14
-29 22 -58 19 -64 -4 -6 -3 -8 3 -5 6 4 16 0 23 -8 7 -8 9 -15 5 -15 -5 0 2
-8 13 -19 23 -19 29 -46 13 -55 -5 -3 -12 1 -15 10 -4 10 -2 13 7 8 6 -4 8 -3
4 2 -4 4 -22 13 -40 19 -25 8 -33 16 -36 40 -3 26 -4 28 -11 10 l-9 -20 0 20
c-1 16 -3 17 -11 5 -7 -12 -12 -12 -29 4 -11 10 -17 25 -14 33 4 10 2 14 -7
11 -7 -2 -27 11 -45 29 -50 50 -84 43 -75 -16 1 -9 -4 -12 -14 -8 -9 4 -16 2
-16 -3 0 -6 -7 -10 -15 -10 -26 0 -53 -34 -44 -57 6 -18 4 -21 -17 -19 -25 1
-40 21 -24 31 6 4 10 16 10 28 0 16 -3 18 -12 9 -19 -19 -26 -14 -20 14 3 16
9 23 18 20 8 -3 14 0 14 5 0 7 -9 9 -22 4 -41 -12 -68 -13 -68 -3 0 6 9 8 20
5 11 -3 20 -1 20 4 0 5 7 9 16 9 14 0 14 2 -1 16 -9 9 -14 23 -11 30 3 8 0 11
-10 7 -7 -3 -14 -12 -14 -20 0 -8 5 -11 10 -8 6 3 10 1 10 -4 0 -6 -9 -11 -21
-11 -11 0 -18 4 -14 9 3 5 1 12 -5 16 -5 3 -10 12 -10 18 0 9 3 8 8 -1 7 -10
12 -8 25 6 16 18 16 20 1 33 -13 10 -18 11 -21 2 -2 -7 -11 -9 -20 -6 -8 3
-19 0 -24 -8 -7 -12 -10 -12 -18 -1 -4 8 -11 13 -15 13 -21 -3 -26 2 -25 32 0
29 1 30 9 10 5 -13 12 -23 15 -23 4 0 3 5 0 10 -3 6 0 10 9 10 10 0 14 10 12
35 -4 41 13 59 46 50 14 -4 18 -3 11 2 -7 5 -9 14 -4 21 9 15 71 28 71 15 0
-5 10 -9 23 -10 l22 -1 -22 10 c-13 6 -23 14 -23 18 0 11 30 21 41 14 5 -3 9
-1 9 5 0 6 7 8 15 5 8 -4 17 1 21 9 3 9 12 18 20 21 10 4 13 2 8 -7 -4 -6 7 1
23 16 17 16 39 28 49 27 33 -4 42 0 47 19 5 21 53 26 72 7z m-1899 -60 c22 -7
66 -16 99 -20 83 -10 111 -23 136 -63 22 -35 21 -95 -3 -109 -6 -4 -42 -6 -79
-5 -41 1 -69 -2 -69 -8 0 -5 23 -29 51 -53 43 -37 89 -101 89 -125 0 -4 -29
25 -65 64 -69 76 -125 107 -185 104 -37 -2 -50 -14 -50 -48 0 -16 11 -28 40
-43 60 -31 116 -85 151 -147 33 -58 52 -79 115 -131 50 -41 33 -41 -31 1 -29
19 -60 51 -77 79 -35 61 -82 113 -127 141 -80 48 -101 72 -101 111 0 37 -15
46 -78 46 -57 0 -122 21 -150 50 -37 37 -82 93 -82 102 0 19 22 5 57 -38 25
-30 57 -55 93 -70 54 -25 58 -25 269 -20 117 3 215 7 217 9 2 2 7 18 10 35 5
26 1 36 -23 60 -22 23 -41 31 -88 36 -77 9 -134 24 -159 42 -26 18 -10 18 40
0z m932 -536 c17 -11 32 -24 32 -30 0 -5 7 -7 15 -4 8 4 15 1 15 -5 0 -6 7
-11 15 -11 8 0 19 -8 24 -17 5 -10 30 -29 55 -43 25 -13 45 -29 45 -35 -3 -29
1 -39 13 -27 18 18 28 15 28 -8 0 -11 5 -20 11 -20 5 0 7 5 3 11 -7 12 15 31
28 23 4 -3 8 -12 8 -20 0 -8 -4 -12 -10 -9 -5 3 -10 2 -10 -4 0 -5 8 -14 17
-19 13 -8 10 -11 -18 -17 -19 -4 -37 -13 -41 -19 -6 -8 -8 -7 -8 2 0 17 -31
15 -57 -3 -21 -14 -22 -55 -2 -55 5 0 9 -7 9 -15 0 -8 -4 -15 -10 -15 -5 0 -9
5 -7 11 1 6 -4 14 -12 17 -9 3 -11 0 -6 -7 5 -8 1 -11 -11 -9 -23 4 -54 60
-39 70 5 4 0 8 -11 8 -16 0 -29 14 -48 53 -26 50 -42 76 -78 128 -9 13 -19 39
-23 57 -6 29 -4 32 17 32 13 0 38 -9 56 -20z m671 -281 c15 -63 13 -131 -4
-172 -8 -20 -15 -48 -15 -61 0 -14 -8 -29 -17 -35 -13 -7 -14 -12 -5 -23 6 -8
14 -34 18 -58 6 -43 40 -123 110 -260 53 -105 67 -156 59 -217 -4 -30 -2 -59
3 -66 5 -7 17 -43 27 -82 10 -38 23 -76 28 -83 8 -10 2 -22 -23 -45 -22 -21
-31 -26 -26 -14 3 10 6 23 6 28 0 5 7 9 15 9 8 0 15 4 15 9 0 9 -48 0 -70 -14
-5 -3 -10 -2 -10 4 0 5 6 12 13 14 7 4 6 6 -4 6 -21 1 -33 31 -19 45 8 8 9 5
5 -9 -7 -20 -6 -20 9 -1 14 18 14 20 -7 31 -15 8 -24 8 -29 1 -5 -7 -8 -4 -8
6 0 10 -8 23 -19 29 -14 10 -17 21 -14 53 6 53 -24 121 -74 166 -31 29 -103
158 -103 185 0 6 -11 39 -24 73 -23 58 -24 65 -10 97 8 19 14 53 14 75 0 22 6
56 14 74 7 18 17 65 21 104 4 40 11 72 15 72 5 0 8 9 7 20 -1 11 -5 20 -9 20
-4 0 -8 10 -8 23 1 21 1 22 13 2 7 -11 20 -21 30 -23 18 -3 24 13 7 23 -14 8
12 46 27 40 7 -2 13 0 13 5 0 6 -5 10 -11 10 -5 0 -7 5 -4 11 10 16 33 -21 44
-72z m-1125 -24 c3 -16 8 -40 12 -53 4 -15 1 -29 -11 -43 -17 -18 -17 -22 -3
-52 13 -26 26 -36 70 -50 30 -9 62 -17 72 -17 9 0 25 -5 35 -12 17 -10 27 -5
76 33 99 77 111 82 189 75 38 -3 74 -10 80 -14 10 -6 26 -8 106 -13 62 -3 90
1 88 12 -4 17 79 21 86 4 2 -7 -1 -16 -9 -19 -10 -3 -12 0 -8 12 5 13 3 14 -7
5 -20 -18 -3 -31 40 -29 37 1 40 -1 40 -26 0 -20 5 -26 19 -25 13 1 17 6 13
17 -5 13 -4 13 13 0 17 -14 18 -13 12 2 -3 10 1 22 10 30 15 12 16 10 9 -12
-5 -14 -10 -59 -13 -100 -3 -41 -9 -83 -14 -92 -12 -23 -44 -11 -67 24 -9 14
-45 49 -79 78 -53 44 -63 49 -63 31 0 -11 22 -44 49 -73 26 -29 61 -68 77 -86
25 -28 41 -37 75 -41 4 -1 21 -45 38 -98 41 -125 74 -189 121 -235 37 -36 61
-102 43 -118 -13 -12 -72 -20 -78 -11 -6 10 -80 4 -110 -9 -125 -55 -159 -72
-182 -90 -22 -17 -23 -20 -7 -20 11 0 52 11 93 25 56 19 77 23 85 14 8 -8 7
-13 -1 -16 -15 -6 -17 -23 -3 -23 5 0 12 11 16 24 7 28 66 45 90 25 8 -6 24
-9 35 -6 12 3 35 3 51 0 l28 -6 -22 -19 c-20 -17 -23 -18 -26 -4 -4 19 -28 21
-38 4 -4 -7 -4 -10 0 -6 10 8 63 -39 53 -48 -3 -3 -13 1 -22 9 -15 16 -37 14
-62 -6 -7 -5 -19 -7 -27 -4 -14 6 -30 -25 -27 -50 1 -7 -5 -13 -14 -13 -9 0
-13 -5 -9 -11 4 -8 0 -9 -15 -4 -12 4 -21 2 -21 -4 0 -6 6 -11 13 -11 7 -1 4
-6 -6 -14 -15 -12 -17 -18 -7 -35 6 -12 8 -26 5 -31 -3 -5 -1 -11 5 -15 5 -3
10 0 10 9 0 8 6 17 13 20 10 5 10 7 0 12 -7 3 -13 12 -13 20 0 9 4 13 9 10 5
-3 11 1 15 9 3 8 12 12 21 9 8 -4 17 1 21 10 3 9 12 16 20 16 9 0 14 11 14 33
l0 32 20 -44 c11 -24 18 -46 15 -50 -3 -3 -8 5 -12 17 l-5 22 -19 -24 c-11
-13 -20 -32 -20 -43 -1 -17 -2 -17 -6 0 -7 28 -37 16 -43 -18 -5 -29 8 -55 29
-55 7 0 7 -9 0 -28 -9 -28 -49 -41 -49 -16 0 7 -7 15 -16 18 -26 10 -29 7 -8
-8 18 -14 18 -15 -6 -25 -14 -5 -19 -10 -12 -10 6 -1 12 -8 12 -16 0 -8 7 -15
16 -15 9 0 12 -5 8 -12 -5 -8 -2 -9 9 -5 10 3 17 2 17 -3 0 -5 7 -7 15 -4 8 4
15 2 15 -4 0 -5 14 -15 30 -22 17 -7 30 -16 30 -21 0 -5 9 -9 19 -9 12 0 21
-9 25 -24 3 -13 13 -27 22 -30 12 -5 15 -2 10 9 -3 9 -2 13 4 10 6 -3 10 -13
10 -20 0 -9 6 -12 15 -9 11 5 13 2 9 -11 -6 -14 -3 -16 12 -11 13 4 23 -1 32
-14 16 -27 6 -46 -16 -28 -13 11 -14 10 -8 -15 6 -26 5 -27 -15 -16 -16 8 -18
13 -9 19 11 7 10 11 -3 24 -20 21 -22 20 -24 -6 -2 -28 24 -58 49 -58 11 0 17
-4 13 -10 -13 -21 -88 31 -79 55 3 7 0 16 -7 21 -7 4 -15 2 -17 -4 -2 -8 -16
-2 -38 14 -18 15 -32 30 -29 34 3 5 0 12 -6 16 -8 5 -9 3 -4 -6 5 -8 3 -11 -6
-8 -18 6 -19 26 -2 60 13 27 13 28 -12 16 -26 -12 -32 -24 -15 -30 5 -2 6 -9
1 -16 -7 -11 -11 -10 -25 3 -9 9 -16 14 -16 11 0 -4 -16 1 -36 9 -42 18 -54
19 -54 5 0 -5 15 -17 33 -26 44 -23 167 -134 167 -150 0 -8 6 -14 14 -14 8 0
46 -25 84 -55 39 -30 74 -55 77 -55 14 0 58 -41 71 -65 23 -44 18 -146 -10
-199 -21 -41 -54 -76 -71 -76 -10 0 -13 5 -9 12 4 7 3 8 -5 4 -6 -4 -9 -16 -6
-26 6 -19 2 -21 -58 -35 -21 -4 -28 -2 -24 7 2 7 0 21 -5 30 -7 15 -12 16 -28
5 -11 -6 -20 -16 -20 -22 0 -5 -13 -29 -29 -53 -16 -23 -34 -66 -41 -95 -6
-28 -15 -61 -20 -72 -30 -73 -70 -194 -70 -212 0 -12 -4 -24 -9 -27 -5 -3 -12
-21 -15 -40 -16 -83 -137 -290 -187 -320 -36 -21 -42 -20 -29 4 7 13 7 26 2
36 -8 14 -13 12 -36 -12 -14 -16 -26 -34 -26 -39 0 -14 -89 -115 -102 -115 -5
0 -26 -8 -46 -18 -44 -21 -117 -27 -155 -13 -19 8 -48 7 -98 -3 -40 -7 -81
-11 -91 -8 -11 3 -23 0 -27 -7 -10 -16 -100 -21 -131 -7 -14 6 -34 19 -45 30
-11 10 -43 29 -72 43 -50 23 -55 23 -139 12 -76 -10 -92 -9 -118 5 -49 25 -89
40 -116 43 -14 1 -86 11 -160 23 -114 17 -149 27 -222 62 -57 28 -92 51 -103
70 -15 25 -15 29 0 34 8 4 24 4 34 1 10 -2 60 4 112 15 52 11 113 23 136 27
23 4 48 13 56 20 9 7 30 9 53 6 113 -16 190 -22 199 -15 6 4 35 13 65 21 30 7
69 25 87 40 18 15 54 40 80 55 26 15 57 34 67 43 11 9 16 11 13 4 -4 -6 -3
-14 3 -18 5 -3 10 -2 10 4 0 14 103 71 128 71 12 0 24 5 27 10 3 6 13 10 22
10 33 0 105 45 120 75 14 26 86 121 104 135 3 3 27 44 53 93 33 63 49 106 56
156 12 85 -1 234 -23 278 -10 18 -17 38 -17 44 0 13 -52 98 -105 172 -32 45
-95 81 -157 92 -21 4 -38 11 -38 16 0 5 -7 9 -15 9 -8 0 -23 4 -33 8 -73 36
-76 40 -98 109 -39 122 -59 155 -148 244 -47 48 -86 92 -86 98 0 6 -5 11 -11
11 -5 0 -7 -4 -4 -10 11 -18 -11 -10 -35 13 -14 12 -26 21 -27 19 -2 -1 -19 5
-39 13 -20 8 -41 15 -46 15 -5 0 -6 5 -2 11 4 7 0 9 -12 5 -11 -3 -37 -1 -59
5 -22 6 -56 11 -76 13 -24 2 -47 13 -73 37 -46 41 -66 79 -101 186 -14 45 -35
93 -46 107 -23 29 -10 36 16 9 17 -17 129 -28 150 -15 6 4 12 7 15 7 3 0 23
11 46 25 38 22 60 49 91 110 18 38 35 55 68 72 39 20 160 29 206 16 30 -8 46
-6 98 12 34 13 64 26 66 31 13 20 70 -29 62 -53 -1 -4 8 -15 21 -24 18 -12 21
-19 11 -30 -15 -18 -30 -18 -23 0 9 22 -17 31 -32 11 -7 -10 -11 -22 -8 -27 3
-5 9 -21 14 -37 6 -21 4 -28 -7 -28 -7 0 -12 6 -9 14 4 10 -1 12 -19 7 -16 -4
-25 -2 -25 6 0 7 7 10 15 7 8 -4 17 -2 20 3 3 4 -1 10 -7 13 -10 3 -9 11 3 34
16 29 16 30 -5 26 -15 -3 -22 -12 -22 -26 0 -28 -35 -87 -52 -87 -7 0 -11 -4
-7 -10 3 -5 13 -6 21 -3 11 4 15 0 14 -13 -4 -34 0 -44 15 -44 9 0 12 -6 8
-17 -5 -11 -3 -14 6 -8 10 5 11 2 6 -14 -6 -21 -4 -22 42 -19 41 3 48 6 51 26
2 14 -1 21 -9 20 -6 -2 -13 2 -16 9 -2 7 4 11 16 10 11 0 18 -4 15 -8 -2 -4 1
-11 7 -14 5 -4 8 -13 5 -20 -2 -7 4 -15 16 -19 28 -7 38 0 38 25 0 16 -5 19
-20 14 -13 -4 -20 -2 -20 6 0 7 3 9 7 6 3 -4 12 -2 19 4 9 7 14 5 19 -11 7
-23 -13 -77 -33 -85 -7 -3 -11 -1 -8 3 2 4 -6 12 -18 18 -17 8 -28 8 -40 -2
-11 -8 -13 -14 -6 -19 5 -3 8 -11 4 -16 -3 -5 -2 -9 3 -8 4 1 15 1 23 0 11 -1
11 -4 2 -13 -18 -18 -14 -28 11 -28 33 1 66 -5 73 -13 11 -10 26 -8 19 2 -3 5
-1 12 5 16 5 3 10 -2 11 -12 0 -10 3 -13 6 -5 7 19 19 15 38 -14 16 -25 16
-26 -4 -19 -17 5 -21 2 -20 -17 0 -13 3 -17 6 -10 7 18 17 15 50 -16 24 -24
28 -33 21 -57 -8 -32 -3 -47 6 -17 4 13 16 19 35 19 39 0 48 -37 15 -68 -18
-17 -21 -28 -17 -55 6 -37 -11 -48 -20 -13 -4 13 -10 18 -17 14 -9 -6 -9 -9 0
-15 8 -5 3 -9 -14 -12 -15 -3 -24 -1 -23 6 1 6 -9 9 -25 8 -14 -2 -29 2 -34 9
-5 9 -1 11 14 7 12 -3 26 0 32 7 9 11 7 13 -12 11 -13 -2 -32 -7 -42 -11 -14
-6 -24 -2 -37 13 -21 27 -49 29 -49 3 0 -18 19 -40 78 -90 13 -11 21 -25 17
-31 -3 -6 -10 -8 -14 -6 -4 3 -7 -4 -8 -14 -1 -11 3 -23 9 -26 7 -5 9 -1 5 9
-3 10 -2 17 3 17 9 0 14 -14 11 -32 0 -5 4 -8 10 -8 8 0 9 13 5 40 -3 22 -5
40 -4 40 2 0 23 -6 48 -14 25 -7 60 -12 78 -10 20 2 32 -1 32 -8 0 -6 -3 -8
-7 -5 -9 9 -33 -12 -33 -30 0 -8 4 -12 9 -8 5 3 12 1 16 -5 3 -5 22 -10 41
-10 22 0 34 -5 34 -13 0 -20 35 -57 53 -57 15 0 27 -20 27 -46 0 -15 42 -79
95 -147 17 -21 74 -70 128 -110 53 -39 97 -77 97 -84 0 -7 4 -13 9 -13 6 0 30
-24 54 -54 34 -42 46 -66 51 -105 4 -28 16 -78 27 -113 12 -38 17 -74 13 -91
-9 -41 18 -31 30 11 6 22 1 66 -19 164 l-27 134 -77 80 c-42 43 -93 90 -114
104 -20 14 -37 28 -37 33 0 4 -5 7 -11 7 -14 0 -69 55 -69 69 0 6 -4 11 -8 11
-5 0 -18 13 -29 28 l-21 29 46 -15 c26 -9 50 -20 54 -26 4 -6 8 -8 8 -5 0 4
19 2 43 -3 23 -6 61 -11 84 -13 39 -3 42 -1 32 16 -5 10 -18 19 -29 19 -11 0
-38 7 -60 16 -39 16 -40 17 -24 35 16 18 16 19 -7 20 -18 1 -20 2 -6 6 17 4
16 7 -7 18 -33 17 -51 11 -53 -18 -2 -21 -1 -21 12 3 11 18 14 20 15 8 0 -9 7
-21 16 -26 9 -5 12 -12 7 -15 -13 -8 -85 12 -79 22 10 15 -35 52 -54 46 -12
-4 -24 2 -34 17 -22 30 -20 41 5 35 13 -3 19 -1 16 6 -2 7 -13 13 -24 15 -19
3 -37 35 -26 46 8 8 43 -18 43 -31 0 -7 7 -13 15 -13 7 0 19 -8 24 -17 7 -12
11 -13 11 -5 0 7 -7 20 -15 29 -17 16 -12 33 11 33 18 0 18 14 -1 30 -8 7 -15
9 -15 4 0 -4 -5 -3 -11 3 -15 15 6 54 26 47 11 -5 13 -2 9 10 -3 9 -10 13 -15
10 -14 -8 -10 3 7 20 9 9 11 16 4 16 -6 0 -9 4 -6 9 3 4 18 6 33 4 26 -4 27
-3 10 11 -11 8 -25 12 -33 9 -8 -3 -14 1 -14 10 0 8 -6 18 -12 20 -10 4 -10 6
-1 6 6 1 15 -3 18 -9 3 -5 20 -7 38 -4 25 3 28 2 12 -5 -11 -5 -15 -10 -9 -10
6 -1 25 6 43 15 18 9 41 14 52 11 10 -3 19 -2 19 3 0 4 13 10 28 13 30 6 81
42 72 50 -3 3 -37 0 -75 -8 -48 -9 -74 -10 -82 -3 -9 7 -13 7 -13 0 0 -18 -50
-21 -61 -3 -9 14 -10 14 -5 -1 4 -13 0 -18 -15 -18 -13 0 -19 6 -17 17 2 10
-2 18 -8 18 -6 0 -18 8 -28 18 -10 9 -26 17 -37 17 -19 0 -19 1 -5 16 19 18
21 28 4 18 -8 -5 -9 -2 -5 10 9 23 -2 43 -14 25 -4 -7 -3 -21 2 -31 6 -12 6
-18 -1 -18 -5 0 -10 7 -10 16 0 10 -6 14 -14 11 -19 -7 -26 13 -14 37 7 13 7
16 -1 12 -6 -4 -11 -1 -11 6 0 9 -3 9 -10 -2 -9 -13 -10 -13 -11 0 -1 8 -1 19
0 23 1 5 -8 6 -19 2 -14 -5 -20 -2 -20 10 0 12 -6 15 -19 10 -12 -4 -23 0 -28
10 -5 8 -20 17 -32 20 -29 5 -48 -4 -31 -15 7 -4 8 -10 4 -12 -5 -3 -18 3 -28
13 -18 18 -18 19 -2 19 12 0 16 5 12 15 -3 10 1 15 12 15 15 1 14 2 -2 12 -15
8 -21 8 -24 0 -7 -21 -20 -13 -15 8 4 14 0 20 -11 20 -16 0 -18 7 -21 70 -2
29 0 30 42 31 45 2 49 2 73 12 67 26 90 28 137 12 26 -9 63 -30 81 -48 37 -36
40 -31 12 23 -39 76 -107 98 -201 64 -38 -14 -109 -19 -186 -15 -13 1 -23 6
-23 12 0 5 -4 8 -10 4 -5 -3 -22 14 -37 37 -15 24 -38 51 -51 61 -32 26 -62
90 -61 129 0 42 27 109 57 143 27 31 28 30 36 -10z m-2019 -1267 c-6 -5 -1 -8
10 -9 11 0 14 -3 8 -6 -7 -2 -12 -14 -12 -26 1 -17 2 -18 6 -4 9 33 23 17 20
-22 -2 -22 -1 -40 2 -39 20 2 22 -4 6 -22 -9 -10 -15 -26 -12 -35 4 -8 1 -15
-6 -16 -9 0 -9 -2 1 -6 19 -7 14 -20 -10 -27 -14 -4 -19 -9 -12 -13 20 -15 23
-39 3 -39 -13 0 -15 3 -7 13 14 17 -4 17 -21 1 -10 -11 -11 -10 -5 5 4 13 2
16 -9 12 -20 -8 -27 16 -17 59 4 20 5 36 1 36 -3 0 10 14 29 30 19 17 28 28
20 25 -11 -4 -16 2 -18 20 -1 14 3 25 8 25 5 0 9 8 8 18 -1 9 0 33 2 52 l2 35
7 -30 c4 -17 2 -33 -4 -37z"/>
<path d="M6865 8267 c-98 -45 -235 -138 -291 -200 -26 -29 -58 -77 -71 -107
-14 -30 -34 -76 -45 -102 -19 -42 -20 -59 -15 -154 10 -154 32 -220 69 -211
10 3 16 1 12 -4 -3 -5 -11 -9 -18 -9 -7 0 -13 -7 -13 -15 0 -8 7 -15 14 -15 8
0 11 4 8 10 -4 6 1 7 11 3 11 -4 13 -8 6 -11 -7 -2 -12 -8 -12 -13 0 -6 3 -8
8 -5 4 2 13 -7 19 -21 11 -24 11 -24 -5 -11 -27 23 -46 33 -38 19 4 -6 2 -18
-4 -26 -10 -12 -9 -16 4 -21 9 -3 16 -12 16 -20 0 -8 4 -14 10 -14 5 0 6 -7 3
-17 -4 -11 -3 -14 5 -9 7 4 12 3 12 -3 0 -6 7 -8 15 -5 11 5 13 2 9 -11 -6
-14 -3 -16 17 -10 13 4 26 12 27 16 6 16 18 9 19 -11 1 -12 -3 -18 -8 -14 -6
3 -19 -3 -30 -15 -19 -20 -19 -22 -2 -46 10 -13 25 -25 34 -25 19 0 62 -53 74
-89 l7 -24 -23 22 c-12 11 -24 28 -25 37 -3 20 -14 32 -14 15 0 -6 -16 1 -36
16 -38 30 -119 156 -110 171 3 5 -9 25 -27 44 -17 19 -50 67 -71 107 -65 119
-89 121 -49 4 37 -113 145 -294 201 -340 8 -7 57 -53 108 -103 99 -96 132
-143 167 -238 31 -81 98 -203 108 -196 5 3 9 16 9 30 0 13 5 24 11 24 5 0 7 5
4 10 -4 6 -10 8 -15 5 -4 -3 -11 6 -14 19 -3 13 -9 31 -12 40 -4 10 -1 16 9
16 8 0 17 -6 20 -12 11 -32 21 12 28 120 7 118 21 186 40 198 8 4 8 9 1 13 -7
4 -7 23 -1 56 10 53 11 213 1 230 -4 6 -7 15 -9 20 -1 6 -11 37 -21 70 -14 42
-17 64 -10 73 8 9 7 11 -3 8 -13 -5 -59 53 -59 73 0 5 -8 15 -17 22 -15 12
-16 12 -10 -3 4 -12 2 -15 -9 -11 -19 7 -18 18 4 39 16 17 16 18 -1 11 -10 -4
-21 -7 -23 -7 -2 0 -4 -7 -4 -16 0 -11 -6 -14 -20 -9 -14 5 -20 2 -20 -9 0 -9
4 -15 9 -13 5 1 9 -2 9 -8 0 -5 -4 -9 -9 -7 -5 1 -9 -5 -9 -14 0 -8 4 -13 9
-9 15 9 23 -13 12 -32 -6 -10 -11 -12 -11 -5 0 15 -26 16 -35 1 -4 -5 1 -19
11 -30 9 -10 14 -22 11 -26 -4 -3 -7 0 -7 8 -1 8 -7 1 -14 -16 -12 -28 -13
-25 -11 39 2 63 1 67 -11 45 -7 -13 -13 -18 -14 -11 0 18 -40 -4 -40 -23 0 -7
-15 -28 -32 -46 l-33 -32 27 5 c24 5 27 2 25 -20 -2 -35 -42 -52 -62 -26 -8
10 -15 27 -15 37 0 10 -5 17 -12 15 -13 -5 -58 38 -58 54 0 5 -5 6 -12 2 -8
-5 -9 0 -6 14 6 23 -7 31 -15 10 -15 -43 -29 48 -27 177 1 90 4 107 36 178 19
43 47 95 62 115 47 62 202 189 278 229 130 67 124 63 89 62 -16 0 -62 -15
-100 -32z"/>
<path d="M6644 6449 c-3 -6 -1 -22 7 -35 10 -19 10 -27 0 -37 -9 -9 -14 -9
-21 3 -8 12 -10 10 -10 -9 0 -20 4 -22 24 -17 27 7 66 -21 47 -33 -7 -4 -3
-13 9 -24 11 -9 17 -23 14 -30 -3 -9 3 -16 15 -20 13 -3 21 -13 21 -26 0 -26
27 -39 43 -21 9 10 9 11 0 6 -12 -6 -18 5 -14 27 0 4 -4 7 -10 7 -5 0 -7 5 -4
10 4 6 10 8 15 5 5 -3 4 8 -1 25 -10 27 -29 33 -29 9 0 -6 5 -7 10 -4 6 3 10
-1 10 -9 0 -23 -19 -30 -26 -9 -3 10 -10 26 -15 35 -13 25 -12 27 14 22 l22
-5 -22 10 c-13 6 -23 15 -23 21 0 6 5 8 12 4 6 -4 17 1 23 10 11 14 13 15 19
1 3 -8 15 -15 26 -15 20 0 19 2 -6 23 -16 14 -38 23 -55 22 -19 -1 -29 4 -32
17 -3 10 -1 21 4 24 5 3 9 0 9 -5 0 -6 5 -11 10 -11 7 0 7 6 0 19 -5 11 -19
19 -29 18 -11 0 -17 -5 -15 -9 3 -4 -2 -8 -11 -8 -9 0 -13 5 -10 10 3 6 2 10
-4 10 -5 0 -13 -5 -17 -11z"/>
<path d="M7681 5930 c-12 -11 -27 -18 -31 -15 -5 3 -15 -4 -23 -16 -8 -11 -22
-21 -30 -23 -9 -1 -39 -26 -68 -56 -28 -30 -56 -54 -61 -52 -5 1 -7 -1 -4 -6
6 -10 -68 -68 -139 -107 -27 -16 -58 -35 -67 -43 -10 -8 -23 -12 -30 -9 -15 5
-61 -27 -51 -37 20 -20 115 12 192 63 31 21 82 55 114 75 32 20 96 72 143 116
59 56 92 80 109 80 14 0 25 -6 25 -14 0 -13 -33 -60 -56 -81 -6 -5 -25 -32
-43 -59 l-32 -49 33 21 c52 32 138 138 138 170 0 40 -13 53 -56 58 -29 3 -45
-1 -63 -16z"/>
<path d="M6855 5219 c-8 -12 -8 -12 29 -24 37 -13 55 -39 41 -61 -10 -15 -165
-79 -165 -68 0 3 -7 -2 -16 -10 -8 -9 -23 -16 -32 -16 -9 0 -27 -10 -38 -23
-12 -12 -35 -29 -50 -37 -16 -7 -38 -24 -50 -37 -11 -14 -29 -26 -40 -27 -10
-2 -18 -9 -16 -15 3 -16 -17 -53 -26 -47 -5 3 -14 1 -22 -5 -13 -7 -12 -9 2
-9 10 0 23 -9 30 -20 7 -11 22 -20 33 -19 14 0 16 2 5 6 -8 3 -20 12 -27 21
-10 12 -8 18 10 31 41 31 78 43 93 30 10 -8 14 -8 14 0 0 6 -5 11 -12 11 -14
0 43 58 75 77 54 31 149 73 192 84 38 10 52 19 69 48 24 41 22 67 -7 99 -22
23 -80 31 -92 11z"/>
<path d="M4046 6580 c-41 -50 -84 -221 -71 -289 6 -31 27 -81 56 -131 5 -8 19
-35 31 -59 l22 -44 9 27 c7 21 12 25 18 15 6 -10 9 -8 9 8 0 12 3 30 6 40 6
15 4 16 -6 6 -11 -10 -17 -8 -32 15 -10 15 -18 33 -18 41 0 8 -7 22 -15 31 -9
10 -18 30 -21 45 -10 57 -8 76 10 69 11 -4 13 0 9 16 -4 17 -8 19 -15 8 -13
-18 1 98 15 131 6 14 11 31 12 36 1 6 5 20 9 33 12 36 1 36 -28 2z"/>
<path d="M8239 4993 c-6 -56 -5 -77 3 -128 14 -82 43 -154 78 -192 16 -18 32
-33 35 -33 3 0 18 -12 33 -26 32 -30 82 -58 89 -50 3 3 -12 25 -33 50 -111
125 -147 187 -159 276 -9 64 -42 139 -46 103z"/>
<path d="M7320 3866 c0 -3 9 -25 20 -48 18 -41 72 -180 101 -261 10 -29 11
-46 2 -80 -15 -53 -10 -58 17 -16 17 27 20 44 15 82 -12 96 -97 297 -135 317
-11 6 -20 8 -20 6z"/>
<path d="M5860 1910 c0 -10 29 -55 76 -117 38 -50 57 -84 50 -90 -3 -3 1 -12
9 -20 8 -8 15 -23 15 -33 0 -10 5 -22 10 -25 6 -4 8 -16 4 -27 -4 -12 -2 -18
4 -14 11 6 37 -58 47 -119 7 -36 8 -38 16 -17 17 44 5 126 -30 215 -6 16 -8
33 -5 39 4 6 3 8 -3 5 -12 -8 -55 71 -46 85 3 6 2 8 -4 5 -5 -3 -21 7 -34 24
-65 81 -82 99 -95 99 -8 0 -14 -4 -14 -10z"/>
<path d="M5820 1691 c0 -11 -4 -23 -10 -26 -5 -3 -17 -32 -25 -63 -9 -31 -22
-70 -30 -87 -8 -16 -37 -86 -64 -155 -36 -91 -63 -141 -99 -185 -74 -91 -133
-186 -139 -222 -8 -47 7 -41 47 19 73 108 150 208 161 208 15 0 5 -92 -17
-156 -26 -77 -11 -79 50 -4 10 12 18 38 18 56 0 19 3 34 7 34 3 0 5 49 3 110
-1 60 1 110 6 110 4 0 8 8 9 18 1 10 15 47 32 82 17 35 31 68 31 73 0 5 9 20
19 33 l19 24 16 -47 c9 -27 20 -81 25 -121 10 -82 12 -85 33 -77 19 8 16 112
-6 174 -8 24 -12 50 -9 57 3 8 1 14 -4 14 -13 0 -43 66 -43 95 0 30 -10 55
-21 55 -5 0 -9 -9 -9 -19z"/>
</g>
</svg>
